<svg width="16" height="16" viewBox="0 0 16 16" fill="none" xmlns="http://www.w3.org/2000/svg">
<g opacity="0.5">
<path d="M12.8748 6.104C11.8294 6.104 10.979 6.95659 10.979 7.99984C10.979 9.04309 11.8283 9.89567 12.8748 9.89567C13.9192 9.89567 14.7707 9.04417 14.7707 7.99984C14.7707 6.9555 13.9192 6.104 12.8748 6.104ZM12.8748 8.81234C12.4263 8.81234 12.0623 8.44834 12.0623 7.99984C12.0623 7.55242 12.4274 7.18734 12.8748 7.18734C13.3223 7.18734 13.6873 7.55134 13.6873 7.99984C13.6873 8.44725 13.3233 8.81234 12.8748 8.81234ZM7.99984 6.104C6.95334 6.104 6.104 6.95659 6.104 7.99984C6.104 9.04309 6.95442 9.89567 7.99984 9.89567C9.04526 9.89567 9.89567 9.04417 9.89567 7.99984C9.89567 6.9555 9.04634 6.104 7.99984 6.104ZM7.99984 8.81234C7.55134 8.81234 7.18734 8.44834 7.18734 7.99984C7.18734 7.55242 7.55242 7.18734 7.99984 7.18734C8.44726 7.18734 8.81234 7.55134 8.81234 7.99984C8.81234 8.44725 8.44834 8.81234 7.99984 8.81234ZM3.12484 6.104C2.07942 6.104 1.229 6.95659 1.229 7.99984C1.229 9.04309 2.07942 9.89567 3.12484 9.89567C4.16917 9.89567 5.02067 9.04417 5.02067 7.99984C5.02067 6.9555 4.16809 6.104 3.12484 6.104ZM3.12484 8.81234C2.67634 8.81234 2.31234 8.44834 2.31234 7.99984C2.31234 7.55242 2.67742 7.18734 3.12484 7.18734C3.57225 7.18734 3.93734 7.55134 3.93734 7.99984C3.93734 8.44725 3.57334 8.81234 3.12484 8.81234Z" fill="black"/>
</g>
</svg>
