<svg width="21" height="21" viewBox="0 0 21 21" fill="none" xmlns="http://www.w3.org/2000/svg">
<path d="M17.8879 1H3.11013C1.9442 1 0.999023 1.94518 0.999023 3.11111V17.8889C0.999023 19.0548 1.9442 20 3.11013 20H17.8879C19.0538 20 19.999 19.0548 19.999 17.8889V3.11111C19.999 1.94518 19.0538 1 17.8879 1Z" stroke="#1DA1F2" stroke-width="2" stroke-linecap="round" stroke-linejoin="round"/>
<path d="M9.72716 13.1618C9.51212 13.4372 9.21406 13.6457 8.83298 13.7874C8.4519 13.9291 8.0191 14 7.53458 14C7.03645 14 6.59548 13.889 6.21168 13.6671C5.82788 13.4452 5.53118 13.1283 5.32158 12.7166C5.11471 12.3021 5.00719 11.8195 4.99902 11.2687V10.8115C4.99902 9.92914 5.21406 9.24064 5.64414 8.74599C6.07422 8.24866 6.67442 8 7.44475 8C8.1062 8 8.63155 8.16043 9.0208 8.48128C9.41005 8.80214 9.64414 9.26471 9.72308 9.86898H8.71049C8.59617 9.16578 8.18106 8.81417 7.46517 8.81417C7.00243 8.81417 6.64993 8.97861 6.40767 9.30749C6.16813 9.63369 6.04428 10.1136 6.03611 10.7473V11.1965C6.03611 11.8275 6.17085 12.3182 6.44033 12.6684C6.71253 13.016 7.08953 13.1898 7.57133 13.1898C8.0994 13.1898 8.47504 13.0722 8.69824 12.8369V11.6939H7.47333V10.9238H9.72716V13.1618Z" fill="#1DA1F2"/>
<path d="M11.9524 13.9198H10.9235V8.08021H11.9524V13.9198Z" fill="#1DA1F2"/>
<path d="M16.6479 11.4452H14.2552V13.9198H13.2222V8.08021H16.999V8.8984H14.2552V10.635H16.6479V11.4452Z" fill="#1DA1F2"/>
<path d="M9.72716 13.1618C9.51212 13.4372 9.21406 13.6457 8.83298 13.7874C8.4519 13.9291 8.0191 14 7.53458 14C7.03645 14 6.59548 13.889 6.21168 13.6671C5.82788 13.4452 5.53118 13.1283 5.32158 12.7166C5.11471 12.3021 5.00719 11.8195 4.99902 11.2687V10.8115C4.99902 9.92914 5.21406 9.24064 5.64414 8.74599C6.07422 8.24866 6.67442 8 7.44475 8C8.1062 8 8.63155 8.16043 9.0208 8.48128C9.41005 8.80214 9.64414 9.26471 9.72308 9.86898H8.71049C8.59617 9.16578 8.18106 8.81417 7.46517 8.81417C7.00243 8.81417 6.64993 8.97861 6.40767 9.30749C6.16813 9.63369 6.04428 10.1136 6.03611 10.7473V11.1965C6.03611 11.8275 6.17085 12.3182 6.44033 12.6684C6.71253 13.016 7.08953 13.1898 7.57133 13.1898C8.0994 13.1898 8.47504 13.0722 8.69824 12.8369V11.6939H7.47333V10.9238H9.72716V13.1618Z" stroke="#1DA1F2" stroke-width="0.2"/>
<path d="M11.9524 13.9198H10.9235V8.08021H11.9524V13.9198Z" stroke="#1DA1F2" stroke-width="0.2"/>
<path d="M16.6479 11.4452H14.2552V13.9198H13.2222V8.08021H16.999V8.8984H14.2552V10.635H16.6479V11.4452Z" stroke="#1DA1F2" stroke-width="0.2"/>
</svg>
