<svg width="19" height="18" viewBox="0 0 19 18" fill="none" xmlns="http://www.w3.org/2000/svg">
<path d="M11.0348 1.68133L7.92377 1.67383H7.92227C4.64177 1.67383 2.07227 4.24408 2.07227 7.52533C2.07227 10.5988 4.46177 12.9298 7.67102 13.0528V15.9238C7.67102 16.0048 7.70402 16.1383 7.76102 16.2261C7.86752 16.3948 8.04902 16.4863 8.23502 16.4863C8.33852 16.4863 8.44277 16.4578 8.53652 16.3978C8.73452 16.2718 13.3913 13.2928 14.6025 12.2683C16.029 11.0608 16.8825 9.29083 16.8848 7.53433V7.52158C16.8803 4.24633 14.3123 1.68133 11.0348 1.68058V1.68133ZM13.875 11.4103C13.0245 12.1303 10.2285 13.9641 8.79602 14.8926V12.5023C8.79602 12.1918 8.54477 11.9398 8.23352 11.9398H7.93652C5.19152 11.9398 3.19802 10.0828 3.19802 7.52533C3.19802 4.87483 5.27402 2.79883 7.92302 2.79883L11.0333 2.80633H11.0348C13.6838 2.80633 15.7598 4.88083 15.7613 7.52833C15.759 8.96083 15.0548 10.4113 13.8758 11.4103H13.875Z" fill="#828282"/>
</svg>
