<svg width="15" height="16" viewBox="0 0 15 16" fill="none" xmlns="http://www.w3.org/2000/svg">
<path d="M11.6479 4.60231L7.89788 0.852313C7.67813 0.632563 7.32188 0.632563 7.10288 0.852313L3.35288 4.60231C3.13237 4.82206 3.13237 5.17831 3.35288 5.39731C3.57338 5.61631 3.92813 5.61781 4.14788 5.39731L6.93788 2.60731V10.2498C6.93788 10.5603 7.18988 10.8123 7.50038 10.8123C7.81088 10.8123 8.06288 10.5603 8.06288 10.2498V2.60731L10.8529 5.39731C10.9624 5.50756 11.1064 5.56231 11.2504 5.56231C11.3944 5.56231 11.5384 5.50831 11.6479 5.39731C11.8676 5.17756 11.8676 4.82206 11.6479 4.60231Z" fill="#828282"/>
<path d="M13.281 15.458H1.719C0.771 15.458 0 14.687 0 13.739V9.5C0 9.1895 0.252 8.9375 0.5625 8.9375C0.873 8.9375 1.125 9.1895 1.125 9.5V13.739C1.125 14.0668 1.39125 14.333 1.719 14.333H13.281C13.6088 14.333 13.875 14.0668 13.875 13.739V9.5C13.875 9.1895 14.127 8.9375 14.4375 8.9375C14.748 8.9375 15 9.1895 15 9.5V13.739C15 14.687 14.229 15.458 13.281 15.458Z" fill="#828282"/>
</svg>
