<svg width="207" height="57" viewBox="0 0 207 57" fill="none" xmlns="http://www.w3.org/2000/svg">
<path d="M32.2075 56.1831L28.7007 38.9873C28.4546 38.9873 24.6606 38.6694 17.3188 38.0337C16.5806 41.6841 15.3398 47.5903 13.5967 55.7524C13.5352 55.7524 9.00293 54.4912 0 51.9688V51.8765C2.95312 43.0786 4.61426 38.0952 4.9834 36.9263C3.79395 36.9263 3.19922 36.834 3.19922 36.6494V30.7432C3.19922 30.6611 3.26074 30.6201 3.38379 30.6201L7.13672 30.5586C12.8584 13.4141 16.2114 3.47803 17.1958 0.750488L30.7002 3.58057C30.7822 3.76514 33.2944 12.686 38.2368 30.3433H39.2212C39.3647 30.4868 40.6362 33.7681 43.0356 40.187L42.8818 40.2485C42.5127 40.2075 41.8975 40.187 41.0361 40.187L44.9121 54.0298C39.3545 54.9937 35.1196 55.7114 32.2075 56.1831ZM19.0415 30.4663C20.231 30.4663 22.8662 30.4458 26.9473 30.4048L23.9634 15.6392C23.4302 15.7007 23.0405 15.7314 22.7944 15.7314H22.0254C20.7744 21.7812 19.7388 26.6929 18.9185 30.4663H19.0415ZM61.4619 1.9502L61.5542 2.104V4.50342C61.5542 4.54443 61.5234 4.56494 61.4619 4.56494C61.4619 4.62646 61.4927 4.65723 61.5542 4.65723L61.4619 5.02637V10.6865C61.4619 10.748 61.4414 10.7788 61.4004 10.7788L61.4619 10.9326C61.4619 10.9736 61.4414 10.9941 61.4004 10.9941L61.4619 11.1479V11.2402C61.4619 11.2812 61.4414 11.3018 61.4004 11.3018C61.4004 11.3633 61.4209 11.394 61.4619 11.394L61.4004 11.7632V18.2847C61.4004 18.3257 61.3696 18.3462 61.3081 18.3462L61.4004 18.5C61.4004 18.5615 61.3696 18.5923 61.3081 18.5923L61.4004 18.7461L61.3081 18.8999C61.3081 18.9409 61.3389 18.9614 61.4004 18.9614L61.3081 19.3613C61.3081 19.4023 61.3389 19.4741 61.4004 19.5767C61.3389 19.6587 61.3081 19.7612 61.3081 19.8843V20.1304C63.687 19.3101 65.9839 18.8999 68.1987 18.8999H68.291C74.4434 18.8999 79.6216 21.4531 83.8257 26.5596C86.02 29.7793 87.1172 33.04 87.1172 36.3418C87.1172 41.8994 84.5127 46.4727 79.3037 50.0615C76.248 52.1123 71.3467 53.1377 64.5996 53.1377H64.0767C55.7505 53.1377 51.5874 52.9531 51.5874 52.584C51.4233 51.1689 50.0186 35.0088 47.373 4.10352C47.7422 4.00098 52.4385 3.2832 61.4619 1.9502ZM61.2466 30.7739V37.3569C61.2466 37.3979 61.2158 37.4185 61.1543 37.4185L61.2466 37.5723V37.6646C61.2466 37.7056 61.2158 37.7261 61.1543 37.7261L61.2466 37.8799C61.2466 37.9414 61.2158 37.9722 61.1543 37.9722L61.2466 38.126V38.1875C61.2466 38.249 61.2158 38.2798 61.1543 38.2798L61.2466 38.4336L61.1543 38.5874C61.2158 38.6694 61.2466 38.7412 61.2466 38.8027H61.1543C61.1543 38.8643 61.1851 38.895 61.2466 38.895L61.1543 39.2642V41.7251C61.1543 42.0532 63.2974 42.3608 67.5835 42.6479H67.6758C70.9775 42.6479 73.3462 41.9507 74.7817 40.5562C76.4224 39.1411 77.2427 37.562 77.2427 35.8188V34.896C77.2427 34.1167 76.7607 33.0708 75.7969 31.7583C74.2383 30.4048 71.9927 29.5127 69.0601 29.082C68.4448 29.0205 68.0039 28.9897 67.7373 28.9897C65.1738 28.9897 63.0103 29.5845 61.2466 30.7739ZM107.881 18.6846H108.927C114.116 18.6846 118.72 20.8994 122.739 25.3291C125.18 28.6514 126.4 32.0044 126.4 35.3882V36.2188C126.4 41.0176 124.257 45.2627 119.971 48.9541C116.464 51.5996 112.783 52.9224 108.927 52.9224H107.881C102.713 52.9224 98.1196 50.7075 94.1001 46.2778C91.6597 42.9556 90.4395 39.6025 90.4395 36.2188V35.3882C90.4395 30.5894 92.5723 26.3442 96.8379 22.6528C100.365 20.0073 104.046 18.6846 107.881 18.6846ZM101.483 36.6187C101.483 38.9565 102.724 40.8535 105.205 42.3096C106.333 42.7812 107.389 43.0171 108.374 43.0171C110.896 43.0171 112.896 41.8584 114.372 39.541C114.926 38.5156 115.203 37.4902 115.203 36.4648C115.203 34.1064 113.952 32.2095 111.45 30.7739C110.322 30.2817 109.266 30.0356 108.281 30.0356C105.779 30.0356 103.78 31.2046 102.283 33.5425C101.75 34.5474 101.483 35.5728 101.483 36.6187ZM161.714 16.2544C161.837 16.2544 162.412 22.3965 163.437 34.6807C163.478 34.7012 163.97 40.0947 164.914 50.8613C164.914 50.9844 162.012 51.1177 156.208 51.2612C155.839 49.5796 155.654 48.6157 155.654 48.3696H155.562C153.327 50.5024 151.389 51.8047 149.748 52.2764C147.923 52.7891 146.467 53.0454 145.38 53.0454C143.76 53.0454 141.535 52.6558 138.705 51.8765C136.572 50.8921 134.88 49.7231 133.629 48.3696C131.66 46.1548 130.522 44.3398 130.214 42.9248C129.333 40.2178 128.892 37.0083 128.892 33.2964C128.892 30.5894 129.097 27.4517 129.507 23.8833L140.643 21.1455L140.704 21.2993C140.253 24.478 140.027 27.021 140.027 28.9282C140.027 31.1636 140.417 33.6553 141.196 36.4033C142.263 39.7666 143.811 41.4482 145.841 41.4482C148.487 41.4482 150.353 40.3101 151.44 38.0337C151.748 37.2954 152.014 36.0034 152.24 34.1577C152.24 31.9634 151.717 28.1489 150.671 22.7144C150.261 21.0327 150.056 19.8433 150.056 19.146L161.714 16.2544ZM182.355 9.979C189.8 10.5122 193.655 10.8096 193.922 10.8711C194.004 10.8711 194.26 14.8291 194.691 22.7451C202.586 23.0117 206.616 23.186 206.78 23.2681V23.3604C206.247 28.959 205.919 31.7583 205.796 31.7583C204.36 31.9429 200.833 32.2915 195.214 32.8042C195.275 33.1118 195.716 40.874 196.537 56.0908L196.352 56.1831C182.366 54.7271 175.25 53.9683 175.003 53.9067L174.911 53.7222C177.023 41.0483 178.11 34.6396 178.172 34.4961H178.08L169.835 35.2651C169.712 35.2651 169.395 30.8354 168.882 21.9761C169.682 21.9761 173.445 22.0889 180.171 22.3145C181.463 14.2344 182.161 10.1226 182.263 9.979H182.355Z" fill="#FECC00"/>
<path d="M32.2075 56.1831L26.3285 57.382L27.4797 63.0271L33.1668 62.1059L32.2075 56.1831ZM28.7007 38.9873L34.5797 37.7884L33.6006 32.9873H28.7007V38.9873ZM17.3188 38.0337L17.8365 32.0561L12.4998 31.5939L11.4379 36.8443L17.3188 38.0337ZM13.5967 55.7524V61.7524H18.4506L19.4644 57.0056L13.5967 55.7524ZM0 51.9688H-6V56.5187L-1.61876 57.7463L0 51.9688ZM0 51.8765L-5.68811 49.9672L-6 50.8963V51.8765H0ZM4.9834 36.9263L10.7049 38.7331L13.1702 30.9263H4.9834V36.9263ZM3.38379 30.6201V36.6201H3.43297L3.48214 36.6193L3.38379 30.6201ZM7.13672 30.5586L7.23507 36.5578L11.4831 36.4881L12.8281 32.458L7.13672 30.5586ZM17.1958 0.750488L18.4265 -5.12194L13.3224 -6.19159L11.5521 -1.28634L17.1958 0.750488ZM30.7002 3.58057L36.1831 1.14374L34.936 -1.66208L31.9309 -2.29187L30.7002 3.58057ZM38.2368 30.3433L32.4589 31.9605L33.6856 36.3433H38.2368V30.3433ZM39.2212 30.3433L43.4638 26.1006L41.7065 24.3433H39.2212V30.3433ZM43.0356 40.187L45.264 45.7579L50.7093 43.5797L48.6558 38.0862L43.0356 40.187ZM42.8818 40.2485L42.2192 46.2118L43.7139 46.3779L45.1102 45.8194L42.8818 40.2485ZM41.0361 40.187V34.187H33.1254L35.2584 41.8048L41.0361 40.187ZM44.9121 54.0298L45.9374 59.9415L52.4804 58.8068L50.6899 52.412L44.9121 54.0298ZM26.9473 30.4048L27.0076 36.4045L34.2663 36.3315L32.8284 29.2163L26.9473 30.4048ZM23.9634 15.6392L29.8445 14.4507L28.7525 9.04677L23.2756 9.67871L23.9634 15.6392ZM22.0254 15.7314V9.73145H17.1391L16.1497 14.5165L22.0254 15.7314ZM18.9185 30.4663L13.0554 29.1917L11.474 36.4663H18.9185V30.4663ZM38.0865 54.9842L34.5797 37.7884L22.8217 40.1862L26.3285 57.382L38.0865 54.9842ZM28.7007 32.9873C28.946 32.9873 29.0116 33.0005 28.3215 32.9462C27.8319 32.9077 27.1171 32.8491 26.1716 32.7699C24.2832 32.6116 21.5059 32.3738 17.8365 32.0561L16.8012 44.0113C20.4736 44.3293 23.2642 44.5683 25.1697 44.728C26.8117 44.8655 28.2456 44.9873 28.7007 44.9873V32.9873ZM11.4379 36.8443C10.7066 40.4602 9.47177 46.339 7.729 54.4993L19.4644 57.0056C21.2079 48.8416 22.4545 42.9079 23.1998 39.2231L11.4379 36.8443ZM13.5967 49.7524C14.0733 49.7524 14.4477 49.8131 14.4845 49.8186C14.6051 49.8367 14.6993 49.8547 14.7438 49.8634C14.8371 49.8817 14.9077 49.8979 14.9294 49.903C14.9599 49.91 14.9823 49.9155 14.9918 49.9178C15.0027 49.9205 15.0095 49.9222 15.0106 49.9225C15.0123 49.9229 15.0054 49.9212 14.9866 49.9163C14.9688 49.9116 14.9449 49.9052 14.9139 49.897C14.7864 49.8629 14.5847 49.808 14.3008 49.7301C13.7369 49.5753 12.8914 49.341 11.7599 49.0262C9.49909 48.397 6.11944 47.4523 1.61876 46.1912L-1.61876 57.7463C2.88349 59.0077 6.27142 59.9548 8.54281 60.5869C9.67744 60.9026 10.5392 61.1414 11.1237 61.3018C11.4141 61.3816 11.6469 61.445 11.8141 61.4897C11.8945 61.5112 11.9794 61.5336 12.0549 61.5528C12.0881 61.5612 12.1523 61.5774 12.2262 61.5945C12.2586 61.602 12.3377 61.6201 12.4373 61.6396C12.4849 61.649 12.5817 61.6674 12.7044 61.6858C12.7432 61.6917 13.1191 61.7524 13.5967 61.7524V49.7524ZM6 51.9688V51.8765H-6V51.9688H6ZM5.68811 53.7858C8.62841 45.0261 10.3147 39.9687 10.7049 38.7331L-0.738098 35.1195C-1.08618 36.2218 -2.72216 41.1311 -5.68811 49.9672L5.68811 53.7858ZM4.9834 30.9263C4.4605 30.9263 4.3906 30.9009 4.56529 30.928C4.59214 30.9322 5.1449 31.0061 5.84291 31.331C6.19838 31.4965 6.93337 31.8815 7.64129 32.6504C8.4378 33.5156 9.19922 34.8897 9.19922 36.6494H-2.80078C-2.80078 40.4637 0.309277 41.9916 0.778552 42.21C1.62524 42.6042 2.40102 42.7358 2.72524 42.7861C3.49465 42.9055 4.31684 42.9263 4.9834 42.9263V30.9263ZM9.19922 36.6494V30.7432H-2.80078V36.6494H9.19922ZM9.19922 30.7432C9.19922 31.4763 9.05905 32.4092 8.57732 33.3726C8.08317 34.3609 7.35971 35.1191 6.57356 35.6432C5.16044 36.5853 3.79944 36.6201 3.38379 36.6201V24.6201C2.84509 24.6201 1.39181 24.6755 -0.0828398 25.6586C-1.98684 26.9279 -2.80078 28.9543 -2.80078 30.7432H9.19922ZM3.48214 36.6193L7.23507 36.5578L7.03837 24.5594L3.28544 24.6209L3.48214 36.6193ZM12.8281 32.458C18.5647 15.2688 21.8868 5.42711 22.8395 2.78731L11.5521 -1.28634C10.5361 1.52894 7.15208 11.5593 1.4453 28.6592L12.8281 32.458ZM15.9651 6.62292L29.4695 9.453L31.9309 -2.29187L18.4265 -5.12194L15.9651 6.62292ZM25.2173 6.0174C25.0265 5.58814 24.9028 5.12971 25.0006 5.45327C25.0158 5.50366 25.0427 5.59454 25.084 5.73642C25.1653 6.01564 25.2857 6.43499 25.447 7.00109C25.7687 8.13021 26.2429 9.80729 26.8705 12.0361C28.1253 16.4918 29.9879 23.1326 32.4589 31.9605L44.0147 28.726C41.5434 19.8967 39.6787 13.2484 38.4212 8.78327C37.7928 6.55159 37.3146 4.86027 36.9877 3.71302C36.8248 3.14093 36.6968 2.69512 36.6057 2.38217C36.5608 2.22797 36.5205 2.09102 36.4875 1.98183C36.4718 1.92977 36.4512 1.86249 36.4293 1.7939C36.4188 1.76115 36.4004 1.70452 36.3773 1.63759C36.3745 1.62925 36.2996 1.40604 36.1831 1.14374L25.2173 6.0174ZM38.2368 36.3433H39.2212V24.3433H38.2368V36.3433ZM34.9785 34.5859C34.4924 34.0997 34.2097 33.6407 34.1618 33.5648C34.0606 33.4041 33.9917 33.2767 33.9623 33.2213C33.9276 33.156 33.9038 33.1075 33.893 33.0852C33.8811 33.0606 33.8745 33.0462 33.874 33.0451C33.8737 33.0446 33.884 33.0671 33.9071 33.121C33.9293 33.1727 33.9584 33.2417 33.995 33.3304C34.1462 33.6962 34.3745 34.2712 34.6878 35.0798C35.3103 36.6861 36.2179 39.0841 37.4155 42.2878L48.6558 38.0862C47.454 34.871 46.5262 32.4189 45.8771 30.7439C45.5547 29.9119 45.2883 29.2385 45.0857 28.7481C44.9874 28.5103 44.8825 28.2629 44.7818 28.0432C44.7345 27.9401 44.6571 27.7748 44.5603 27.5926C44.5131 27.5037 44.4287 27.3489 44.3141 27.167C44.2529 27.0699 43.959 26.5958 43.4638 26.1006L34.9785 34.5859ZM40.8073 34.6161L40.6535 34.6777L45.1102 45.8194L45.264 45.7579L40.8073 34.6161ZM43.5444 34.2852C42.8148 34.2042 41.9075 34.187 41.0361 34.187V46.187C41.4242 46.187 41.723 46.1917 41.9437 46.1991C42.1827 46.207 42.2552 46.2158 42.2192 46.2118L43.5444 34.2852ZM35.2584 41.8048L39.1343 55.6476L50.6899 52.412L46.8139 38.5692L35.2584 41.8048ZM43.8868 48.118C38.3353 49.0809 34.1267 49.7941 31.2482 50.2603L33.1668 62.1059C36.1126 61.6288 40.3737 60.9064 45.9374 59.9415L43.8868 48.118ZM19.0415 36.4663C20.2671 36.4663 22.9345 36.4454 27.0076 36.4045L26.887 24.4051C22.7979 24.4462 20.1949 24.4663 19.0415 24.4663V36.4663ZM32.8284 29.2163L29.8445 14.4507L18.0823 16.8276L21.0661 31.5933L32.8284 29.2163ZM23.2756 9.67871C23.0564 9.704 22.901 9.71893 22.799 9.72698C22.7492 9.73092 22.7228 9.73236 22.7159 9.73269C22.7068 9.73313 22.7361 9.73145 22.7944 9.73145V21.7314C23.4096 21.7314 24.0911 21.6642 24.6511 21.5996L23.2756 9.67871ZM22.7944 9.73145H22.0254V21.7314H22.7944V9.73145ZM16.1497 14.5165C14.9007 20.5566 13.8696 25.4462 13.0554 29.1917L24.7815 31.7409C25.6079 27.9395 26.6481 23.0059 27.9011 16.9464L16.1497 14.5165ZM18.9185 36.4663H19.0415V24.4663H18.9185V36.4663ZM61.4619 1.9502L66.6069 -1.13678L64.5466 -4.57061L60.5851 -3.98539L61.4619 1.9502ZM61.5542 2.104H67.5542V0.4421L66.6992 -0.982971L61.5542 2.104ZM61.4619 4.56494V-1.43506H55.4619V4.56494H61.4619ZM61.5542 4.65723L67.3751 6.11244L69.2389 -1.34277H61.5542V4.65723ZM61.4619 5.02637L55.6411 3.57115L55.4619 4.28773V5.02637H61.4619ZM61.4004 10.7788V4.77881H52.5382L55.8295 13.0072L61.4004 10.7788ZM61.4619 10.9326H67.4619V9.77712L67.0328 8.70427L61.4619 10.9326ZM61.4004 10.9941V4.99414H52.5382L55.8295 13.2225L61.4004 10.9941ZM61.4619 11.1479H67.4619V9.99245L67.0328 8.91961L61.4619 11.1479ZM61.4004 11.3018V5.30176H55.4004V11.3018H61.4004ZM61.4619 11.394L67.3803 12.3804L68.5447 5.39404H61.4619V11.394ZM61.4004 11.7632L55.482 10.7768L55.4004 11.2666V11.7632H61.4004ZM61.3081 18.3462V12.3462H50.711L56.1631 21.4332L61.3081 18.3462ZM61.4004 18.5H67.4004V16.8381L66.5453 15.413L61.4004 18.5ZM61.3081 18.5923V12.5923H50.711L56.1631 21.6793L61.3081 18.5923ZM61.4004 18.7461L66.5453 21.8331L68.3975 18.7461L66.5453 15.6591L61.4004 18.7461ZM61.3081 18.8999L56.1631 15.8129L55.3081 17.238V18.8999H61.3081ZM61.4004 18.9614L67.2467 20.3106L68.9427 12.9614H61.4004V18.9614ZM61.3081 19.3613L55.4618 18.0122L55.3081 18.678V19.3613H61.3081ZM61.4004 19.5767L66.2004 23.1767L68.621 19.9491L66.5453 16.4897L61.4004 19.5767ZM61.3081 20.1304H55.3081V28.546L63.264 25.8026L61.3081 20.1304ZM83.8257 26.5596L88.7837 23.1805L88.6306 22.9559L88.4578 22.746L83.8257 26.5596ZM79.3037 50.0615L82.6473 55.0435L82.6777 55.0231L82.7078 55.0024L79.3037 50.0615ZM51.5874 52.584H57.5874V52.2373L57.5475 51.893L51.5874 52.584ZM47.373 4.10352L45.7672 -1.67759L40.9703 -0.345124L41.3949 4.61525L47.373 4.10352ZM61.2466 30.7739L57.8917 25.7995L55.2466 27.5834V30.7739H61.2466ZM61.1543 37.4185V31.4185H50.5572L56.0093 40.5054L61.1543 37.4185ZM61.2466 37.5723H67.2466V35.9104L66.3915 34.4853L61.2466 37.5723ZM61.1543 37.7261V31.7261H50.5572L56.0093 40.813L61.1543 37.7261ZM61.2466 37.8799H67.2466V36.218L66.3915 34.7929L61.2466 37.8799ZM61.1543 37.9722V31.9722H50.5572L56.0093 41.0591L61.1543 37.9722ZM61.2466 38.126H67.2466V36.4641L66.3915 35.039L61.2466 38.126ZM61.1543 38.2798V32.2798H50.5572L56.0093 41.3668L61.1543 38.2798ZM61.2466 38.4336L66.3915 41.5206L68.2437 38.4336L66.3915 35.3466L61.2466 38.4336ZM61.1543 38.5874L56.0093 35.5004L53.9337 38.9599L56.3543 42.1874L61.1543 38.5874ZM61.2466 38.8027V44.8027H67.2466V38.8027H61.2466ZM61.1543 38.8027V32.8027H55.1543V38.8027H61.1543ZM61.2466 38.895L67.0674 40.3502L68.9312 32.895H61.2466V38.895ZM61.1543 39.2642L55.3334 37.8089L55.1543 38.5255V39.2642H61.1543ZM67.5835 42.6479L67.1825 48.6345L67.3828 48.6479H67.5835V42.6479ZM74.7817 40.5562L70.863 36.0127L70.7284 36.1287L70.601 36.2525L74.7817 40.5562ZM75.7969 31.7583L80.6329 28.2068L80.2366 27.6671L79.731 27.2281L75.7969 31.7583ZM69.0601 29.082L69.9318 23.1457L69.7948 23.1256L69.6571 23.1118L69.0601 29.082ZM56.317 5.03717L56.4092 5.19098L66.6992 -0.982971L66.6069 -1.13678L56.317 5.03717ZM55.5542 2.104V4.50342H67.5542V2.104H55.5542ZM55.5542 4.50342C55.5542 3.76007 55.6963 2.8182 56.1819 1.84705C56.6799 0.851069 57.4091 0.0864816 58.2029 -0.442741C59.6314 -1.39508 61.0155 -1.43506 61.4619 -1.43506V10.5649C61.9698 10.5649 63.4001 10.5147 64.8593 9.54186C66.7479 8.28279 67.5542 6.27176 67.5542 4.50342H55.5542ZM55.4619 4.56494C55.4619 5.52057 55.7049 7.33934 57.2423 8.8768C58.7798 10.4143 60.5986 10.6572 61.5542 10.6572V-1.34277C62.4483 -1.34277 64.2209 -1.11518 65.7276 0.391515C67.2343 1.89821 67.4619 3.67083 67.4619 4.56494H55.4619ZM55.7333 3.20201L55.6411 3.57115L67.2828 6.48158L67.3751 6.11244L55.7333 3.20201ZM55.4619 5.02637V10.6865H67.4619V5.02637H55.4619ZM55.4619 10.6865C55.4619 10.2401 55.5019 8.85604 56.4542 7.42754C56.9835 6.6337 57.748 5.90447 58.744 5.40648C59.7152 4.9209 60.657 4.77881 61.4004 4.77881V16.7788C63.1687 16.7788 65.1798 15.9726 66.4388 14.0839C67.4117 12.6247 67.4619 11.1945 67.4619 10.6865H55.4619ZM55.8295 13.0072L55.8911 13.161L67.0328 8.70427L66.9713 8.55046L55.8295 13.0072ZM55.4619 10.9326C55.4619 10.0283 55.6921 8.24794 57.2039 6.73612C58.7157 5.22429 60.496 4.99414 61.4004 4.99414V16.9941C62.3458 16.9941 64.1568 16.7537 65.6892 15.2214C67.2215 13.6891 67.4619 11.878 67.4619 10.9326H55.4619ZM55.8295 13.2225L55.8911 13.3763L67.0328 8.91961L66.9713 8.7658L55.8295 13.2225ZM55.4619 11.1479V11.2402H67.4619V11.1479H55.4619ZM55.4619 11.2402C55.4619 10.3359 55.6921 8.55556 57.2039 7.04374C58.7157 5.53191 60.496 5.30176 61.4004 5.30176V17.3018C62.3458 17.3018 64.1568 17.0613 65.6892 15.529C67.2215 13.9967 67.4619 12.1856 67.4619 11.2402H55.4619ZM55.4004 11.3018C55.4004 11.8097 55.4506 13.2399 56.4235 14.6992C57.6825 16.5878 59.6936 17.394 61.4619 17.394V5.39404C62.2053 5.39404 63.1471 5.53614 64.1183 6.02171C65.1143 6.5197 65.8789 7.24894 66.4081 8.04277C67.3604 9.47128 67.4004 10.8553 67.4004 11.3018H55.4004ZM55.5436 10.4076L55.482 10.7768L67.3188 12.7496L67.3803 12.3804L55.5436 10.4076ZM55.4004 11.7632V18.2847H67.4004V11.7632H55.4004ZM55.4004 18.2847C55.4004 17.5413 55.5425 16.5995 56.0281 15.6283C56.5261 14.6323 57.2553 13.8677 58.0491 13.3385C59.4776 12.3862 60.8617 12.3462 61.3081 12.3462V24.3462C61.816 24.3462 63.2463 24.296 64.7055 23.3231C66.5941 22.064 67.4004 20.053 67.4004 18.2847H55.4004ZM56.1631 21.4332L56.2554 21.587L66.5453 15.413L66.4531 15.2592L56.1631 21.4332ZM55.4004 18.5C55.4004 17.6059 55.628 15.8333 57.1347 14.3266C58.6414 12.8199 60.414 12.5923 61.3081 12.5923V24.5923C62.2637 24.5923 64.0825 24.3493 65.62 22.8119C67.1574 21.2744 67.4004 19.4556 67.4004 18.5H55.4004ZM56.1631 21.6793L56.2554 21.8331L66.5453 15.6591L66.4531 15.5053L56.1631 21.6793ZM56.2554 15.6591L56.1631 15.8129L66.4531 21.9869L66.5453 21.8331L56.2554 15.6591ZM55.3081 18.8999C55.3081 20.6682 56.1144 22.6793 58.003 23.9383C59.4622 24.9112 60.8925 24.9614 61.4004 24.9614V12.9614C61.8468 12.9614 63.2309 13.0014 64.6594 13.9537C65.4532 14.483 66.1824 15.2476 66.6804 16.2435C67.166 17.2147 67.3081 18.1566 67.3081 18.8999H55.3081ZM55.554 17.6123L55.4618 18.0122L67.1544 20.7105L67.2467 20.3106L55.554 17.6123ZM55.3081 19.3613C55.3081 20.6342 55.7179 21.5797 55.8163 21.8094C55.9788 22.1885 56.1501 22.4881 56.2554 22.6636L66.5453 16.4897C66.5892 16.5627 66.7143 16.7751 66.846 17.0824C66.9138 17.2405 67.0138 17.4939 67.1025 17.8192C67.1847 18.1207 67.3081 18.6654 67.3081 19.3613H55.3081ZM56.6004 15.9767C55.6136 17.2923 55.3081 18.73 55.3081 19.8843H67.3081C67.3081 20.7924 67.0641 22.0251 66.2004 23.1767L56.6004 15.9767ZM55.3081 19.8843V20.1304H67.3081V19.8843H55.3081ZM63.264 25.8026C65.0982 25.1702 66.7334 24.8999 68.1987 24.8999V12.8999C65.2344 12.8999 62.2759 13.45 59.3522 14.4581L63.264 25.8026ZM68.1987 24.8999H68.291V12.8999H68.1987V24.8999ZM68.291 24.8999C72.5018 24.8999 76.0314 26.5323 79.1936 30.3732L88.4578 22.746C83.2117 16.3739 76.3849 12.8999 68.291 12.8999V24.8999ZM78.8677 29.9386C80.5081 32.3457 81.1172 34.4499 81.1172 36.3418H93.1172C93.1172 31.6302 91.5319 27.2129 88.7837 23.1805L78.8677 29.9386ZM81.1172 36.3418C81.1172 39.629 79.744 42.472 75.8996 45.1207L82.7078 55.0024C89.2814 50.4734 93.1172 44.1698 93.1172 36.3418H81.1172ZM75.9601 45.0795C74.4217 46.112 71.0112 47.1377 64.5996 47.1377V59.1377C71.6821 59.1377 78.0744 58.1126 82.6473 55.0435L75.9601 45.0795ZM64.5996 47.1377H64.0767V59.1377H64.5996V47.1377ZM64.0767 47.1377C59.9333 47.1377 56.9193 47.0913 54.9755 47.0052C53.9752 46.9608 53.4089 46.9118 53.159 46.8786C52.9867 46.8557 53.1959 46.8701 53.5609 46.9834C53.7013 47.0269 54.2874 47.2085 54.9587 47.6549C55.4339 47.971 57.5874 49.5173 57.5874 52.584H45.5874C45.5874 55.6968 47.7734 57.2878 48.3137 57.6471C49.0501 58.1368 49.7337 58.3602 50.0042 58.4441C50.6294 58.6382 51.2288 58.7276 51.5769 58.7739C52.3678 58.8791 53.3627 58.9454 54.444 58.9934C56.6632 59.0918 59.8938 59.1377 64.0767 59.1377V47.1377ZM57.5475 51.893C57.3972 50.5968 56.0052 34.5962 53.3512 3.59178L41.3949 4.61525C44.0319 35.4214 45.4495 51.7411 45.6273 53.275L57.5475 51.893ZM48.9789 9.88462C48.6596 9.97331 48.5625 9.97303 49.4204 9.83409C50.0271 9.73584 50.9101 9.59801 52.0786 9.41941C54.4116 9.06283 57.8297 8.55189 62.3388 7.88578L60.5851 -3.98539C56.0707 -3.31849 52.6289 -2.80404 50.2656 -2.44284C49.086 -2.26256 48.1617 -2.11841 47.5021 -2.01158C47.0936 -1.94544 46.271 -1.81755 45.7672 -1.67759L48.9789 9.88462ZM55.2466 30.7739V37.3569H67.2466V30.7739H55.2466ZM55.2466 37.3569C55.2466 36.6136 55.3887 35.6717 55.8743 34.7006C56.3722 33.7046 57.1015 32.94 57.8953 32.4108C59.3238 31.4584 60.7079 31.4185 61.1543 31.4185V43.4185C61.6622 43.4185 63.0924 43.3682 64.5517 42.3954C66.4403 41.1363 67.2466 39.1253 67.2466 37.3569H55.2466ZM56.0093 40.5054L56.1016 40.6592L66.3915 34.4853L66.2993 34.3315L56.0093 40.5054ZM55.2466 37.5723V37.6646H67.2466V37.5723H55.2466ZM55.2466 37.6646C55.2466 36.9212 55.3887 35.9793 55.8743 35.0082C56.3722 34.0122 57.1015 33.2476 57.8953 32.7184C59.3238 31.7661 60.7079 31.7261 61.1543 31.7261V43.7261C61.6622 43.7261 63.0924 43.6758 64.5517 42.703C66.4403 41.4439 67.2466 39.4329 67.2466 37.6646H55.2466ZM56.0093 40.813L56.1016 40.9669L66.3915 34.7929L66.2993 34.6391L56.0093 40.813ZM55.2466 37.8799C55.2466 36.9858 55.4742 35.2132 56.9809 33.7065C58.4876 32.1998 60.2602 31.9722 61.1543 31.9722V43.9722C62.1099 43.9722 63.9287 43.7292 65.4661 42.1917C67.0036 40.6543 67.2466 38.8355 67.2466 37.8799H55.2466ZM56.0093 41.0591L56.1016 41.213L66.3915 35.039L66.2993 34.8852L56.0093 41.0591ZM55.2466 38.126V38.1875H67.2466V38.126H55.2466ZM55.2466 38.1875C55.2466 37.2934 55.4742 35.5208 56.9809 34.0141C58.4876 32.5074 60.2602 32.2798 61.1543 32.2798V44.2798C62.1099 44.2798 63.9287 44.0368 65.4661 42.4994C67.0036 40.9619 67.2466 39.1431 67.2466 38.1875H55.2466ZM56.0093 41.3668L56.1016 41.5206L66.3915 35.3466L66.2993 35.1928L56.0093 41.3668ZM56.1016 35.3466L56.0093 35.5004L66.2993 41.6744L66.3915 41.5206L56.1016 35.3466ZM56.3543 42.1874C56.1821 41.9578 55.9295 41.5816 55.7086 41.0663C55.4869 40.5489 55.2466 39.7716 55.2466 38.8027H67.2466C67.2466 36.8301 66.3221 35.4779 65.9543 34.9874L56.3543 42.1874ZM61.2466 32.8027H61.1543V44.8027H61.2466V32.8027ZM55.1543 38.8027C55.1543 39.7584 55.3973 41.5771 56.9347 43.1146C58.4722 44.6521 60.291 44.895 61.2466 44.895V32.895C62.1407 32.895 63.9133 33.1226 65.42 34.6293C66.9267 36.136 67.1543 37.9086 67.1543 38.8027H55.1543ZM55.4257 37.4398L55.3334 37.8089L66.9752 40.7194L67.0674 40.3502L55.4257 37.4398ZM55.1543 39.2642V41.7251H67.1543V39.2642H55.1543ZM55.1543 41.7251C55.1543 45.2165 57.8653 46.8098 58.1569 46.9856C58.8736 47.4177 59.5458 47.6294 59.8497 47.7196C60.5479 47.9267 61.299 48.0535 61.9091 48.141C63.2131 48.3282 65.0045 48.4886 67.1825 48.6345L67.9845 36.6614C65.8763 36.5201 64.4532 36.3832 63.6141 36.2628C63.1527 36.1965 63.1001 36.1669 63.2625 36.2151C63.2986 36.2258 63.7698 36.3574 64.3526 36.7087C64.6477 36.8867 65.2411 37.2795 65.8126 37.9741C66.4233 38.7163 67.1543 39.9989 67.1543 41.7251H55.1543ZM67.5835 48.6479H67.6758V36.6479H67.5835V48.6479ZM67.6758 48.6479C71.5794 48.6479 75.869 47.8649 78.9625 44.8598L70.601 36.2525C70.7267 36.1304 70.6993 36.2323 70.2342 36.3692C69.7497 36.5118 68.9333 36.6479 67.6758 36.6479V48.6479ZM78.7005 45.0996C81.3146 42.845 83.2427 39.7195 83.2427 35.8188H71.2427C71.2427 35.7791 71.248 35.7213 71.2638 35.6572C71.2795 35.5936 71.298 35.5542 71.303 35.5446C71.3116 35.5281 71.2281 35.6977 70.863 36.0127L78.7005 45.0996ZM83.2427 35.8188V34.896H71.2427V35.8188H83.2427ZM83.2427 34.896C83.2427 32.0424 81.6803 29.633 80.6329 28.2068L70.9608 35.3098C71.1198 35.5261 71.2343 35.6984 71.3141 35.8286C71.395 35.9604 71.4277 36.0288 71.4319 36.0381C71.4374 36.05 71.3964 35.9648 71.3511 35.7933C71.3061 35.6229 71.2427 35.3134 71.2427 34.896H83.2427ZM79.731 27.2281C77.0073 24.8628 73.5288 23.6739 69.9318 23.1457L68.1883 35.0184C70.4565 35.3515 71.4693 35.9468 71.8628 36.2885L79.731 27.2281ZM69.6571 23.1118C69.0328 23.0494 68.3305 22.9897 67.7373 22.9897V34.9897C67.6708 34.9897 67.6915 34.9872 67.8504 34.9983C67.9927 35.0082 68.1936 35.0253 68.463 35.0523L69.6571 23.1118ZM67.7373 22.9897C64.2271 22.9897 60.8345 23.8149 57.8917 25.7995L64.6014 35.7484C65.1861 35.3541 66.1206 34.9897 67.7373 34.9897V22.9897ZM122.739 25.3291L127.575 21.777L127.391 21.527L127.183 21.2972L122.739 25.3291ZM119.971 48.9541L123.584 53.744L123.739 53.6271L123.886 53.5004L119.971 48.9541ZM94.1001 46.2778L89.2645 49.8299L89.4482 50.08L89.6567 50.3098L94.1001 46.2778ZM96.8379 22.6528L93.2379 17.8528L93.0702 17.9786L92.9116 18.1158L96.8379 22.6528ZM105.205 42.3096L102.169 47.4845L102.517 47.6891L102.89 47.8451L105.205 42.3096ZM114.372 39.541L119.432 42.7652L119.549 42.5825L119.652 42.3919L114.372 39.541ZM111.45 30.7739L114.436 25.5697L114.151 25.4061L113.849 25.2747L111.45 30.7739ZM102.283 33.5425L97.2299 30.3069L97.0976 30.5135L96.9826 30.7302L102.283 33.5425ZM107.881 24.6846H108.927V12.6846H107.881V24.6846ZM108.927 24.6846C112.158 24.6846 115.222 25.9738 118.296 29.361L127.183 21.2972C122.217 15.825 116.073 12.6846 108.927 12.6846V24.6846ZM117.904 28.8812C119.756 31.4031 120.4 33.5402 120.4 35.3882H132.4C132.4 30.4686 130.603 25.8997 127.575 21.777L117.904 28.8812ZM120.4 35.3882V36.2188H132.4V35.3882H120.4ZM120.4 36.2188C120.4 38.9537 119.279 41.6314 116.055 44.4078L123.886 53.5004C129.235 48.894 132.4 43.0814 132.4 36.2188H120.4ZM116.357 44.1642C113.74 46.1388 111.301 46.9224 108.927 46.9224V58.9224C114.265 58.9224 119.188 57.0604 123.584 53.744L116.357 44.1642ZM108.927 46.9224H107.881V58.9224H108.927V46.9224ZM107.881 46.9224C104.678 46.9224 101.623 45.6392 98.5435 42.2459L89.6567 50.3098C94.6167 55.7758 100.749 58.9224 107.881 58.9224V46.9224ZM98.9357 42.7258C97.0832 40.2038 96.4395 38.0667 96.4395 36.2188H84.4395C84.4395 41.1384 86.2362 45.7073 89.2645 49.8299L98.9357 42.7258ZM96.4395 36.2188V35.3882H84.4395V36.2188H96.4395ZM96.4395 35.3882C96.4395 32.6421 97.5605 29.9622 100.764 27.1898L92.9116 18.1158C87.584 22.7262 84.4395 28.5367 84.4395 35.3882H96.4395ZM100.438 27.4528C103.089 25.4647 105.534 24.6846 107.881 24.6846V12.6846C102.559 12.6846 97.6418 14.5499 93.2379 17.8528L100.438 27.4528ZM95.4829 36.6187C95.4829 41.6018 98.3456 45.2412 102.169 47.4845L108.242 37.1347C107.921 36.9463 107.716 36.788 107.592 36.6769C107.532 36.6221 107.492 36.58 107.468 36.5524C107.444 36.5251 107.435 36.5109 107.435 36.5106C107.435 36.5105 107.441 36.5203 107.45 36.5392C107.459 36.5582 107.467 36.58 107.474 36.6024C107.488 36.6527 107.483 36.6662 107.483 36.6187H95.4829ZM102.89 47.8451C104.58 48.5515 106.427 49.0171 108.374 49.0171V37.0171C108.351 37.0171 108.086 37.011 107.52 36.7741L102.89 47.8451ZM108.374 49.0171C113.156 49.0171 116.971 46.6273 119.432 42.7652L109.312 36.3169C108.993 36.8174 108.781 36.9425 108.757 36.9567C108.737 36.9681 108.716 36.9778 108.678 36.9876C108.637 36.9982 108.542 37.0171 108.374 37.0171V49.0171ZM119.652 42.3919C120.613 40.6117 121.203 38.6146 121.203 36.4648H109.203C109.203 36.4307 109.208 36.4178 109.202 36.4389C109.196 36.4634 109.17 36.5461 109.093 36.6901L119.652 42.3919ZM121.203 36.4648C121.203 31.4476 118.313 27.7946 114.436 25.5697L108.464 35.9781C109.114 36.3514 109.267 36.5933 109.256 36.5765C109.249 36.5662 109.227 36.528 109.212 36.4748C109.197 36.4234 109.203 36.4117 109.203 36.4648H121.203ZM113.849 25.2747C112.148 24.5322 110.27 24.0356 108.281 24.0356V36.0356C108.261 36.0356 108.496 36.0312 109.05 36.2732L113.849 25.2747ZM108.281 24.0356C103.482 24.0356 99.6866 26.4704 97.2299 30.3069L107.336 36.7781C107.673 36.2508 107.9 36.1116 107.933 36.0921C107.956 36.079 107.975 36.0704 108.007 36.0622C108.041 36.0533 108.126 36.0356 108.281 36.0356V24.0356ZM96.9826 30.7302C96.0311 32.5235 95.4829 34.5079 95.4829 36.6187H107.483C107.483 36.6118 107.483 36.6011 107.49 36.575C107.497 36.5466 107.519 36.4745 107.583 36.3548L96.9826 30.7302ZM161.714 16.2544V10.2544H160.981L160.27 10.4308L161.714 16.2544ZM163.437 34.6807L157.458 35.1798L157.738 38.5395L160.754 40.0472L163.437 34.6807ZM164.914 50.8613H170.914V50.599L170.891 50.3376L164.914 50.8613ZM156.208 51.2612L150.348 52.5477L151.409 57.3818L156.356 57.2594L156.208 51.2612ZM155.654 48.3696H161.654V42.3696H155.654V48.3696ZM155.562 48.3696V42.3696H153.159L151.42 44.0286L155.562 48.3696ZM149.748 52.2764L151.371 58.0528L151.388 58.0478L151.406 58.0428L149.748 52.2764ZM138.705 51.8765L136.19 57.3242L136.637 57.5305L137.112 57.6612L138.705 51.8765ZM133.629 48.3696L129.144 52.3558L129.183 52.3993L129.223 52.4421L133.629 48.3696ZM130.214 42.9248L136.077 41.6502L136.013 41.3543L135.919 41.0664L130.214 42.9248ZM129.507 23.8833L128.074 18.0568L124.023 19.053L123.546 23.1982L129.507 23.8833ZM140.643 21.1455L146.213 18.9172L144.276 14.0735L139.21 15.319L140.643 21.1455ZM140.704 21.2993L146.645 22.1425L146.87 20.5574L146.275 19.071L140.704 21.2993ZM141.196 36.4033L135.424 38.0403L135.449 38.1289L135.477 38.2168L141.196 36.4033ZM151.44 38.0337L156.854 40.619L156.92 40.4818L156.978 40.3414L151.44 38.0337ZM152.24 34.1577L158.195 34.8856L158.24 34.523V34.1577H152.24ZM150.671 22.7144L156.563 21.5804L156.535 21.4358L156.5 21.2926L150.671 22.7144ZM150.056 19.146L148.611 13.3224L144.056 14.4523V19.146H150.056ZM161.714 22.2544C158.567 22.2544 156.997 19.9689 156.839 19.7471C156.42 19.1608 156.21 18.6366 156.145 18.4718C155.986 18.0688 155.913 17.7456 155.9 17.6919C155.857 17.5072 155.842 17.3937 155.851 17.4532C155.862 17.5243 155.888 17.7168 155.93 18.0828C156.01 18.7894 156.121 19.8928 156.263 21.4195C156.548 24.4597 156.945 29.0421 157.458 35.1798L169.416 34.1816C168.903 28.0351 168.501 23.4043 168.211 20.3025C168.067 18.7581 167.947 17.5582 167.853 16.7292C167.807 16.3275 167.76 15.9442 167.712 15.6315C167.692 15.499 167.651 15.2415 167.585 14.9608C167.562 14.8592 167.478 14.5 167.31 14.073C167.24 13.8961 167.026 13.363 166.602 12.7707C166.44 12.5429 164.866 10.2544 161.714 10.2544V22.2544ZM160.754 40.0472C159.474 39.4071 158.784 38.4892 158.552 38.1638C158.254 37.7468 158.075 37.3806 157.987 37.1901C157.809 36.8028 157.714 36.4832 157.681 36.3701C157.603 36.1046 157.562 35.894 157.552 35.8424C157.524 35.6969 157.509 35.5895 157.509 35.5837C157.503 35.5428 157.503 35.5407 157.511 35.6126C157.526 35.7396 157.549 35.9597 157.581 36.2916C157.646 36.9462 157.739 37.9413 157.862 39.2865C158.107 41.9721 158.465 46.0033 158.936 51.385L170.891 50.3376C170.419 44.9527 170.059 40.9039 169.812 38.1959C169.689 36.8443 169.592 35.8143 169.523 35.1154C169.49 34.7705 169.46 34.4818 169.436 34.2678C169.425 34.1692 169.409 34.0387 169.391 33.9113C169.385 33.8621 169.365 33.722 169.332 33.5542C169.32 33.4915 169.277 33.2724 169.198 33.001C169.164 32.8849 169.068 32.5631 168.889 32.1741C168.801 31.9829 168.621 31.616 168.323 31.1985C168.091 30.8726 167.401 29.9544 166.12 29.3141L160.754 40.0472ZM158.914 50.8613C158.914 49.3007 159.509 48.0864 160.077 47.3135C160.611 46.5875 161.189 46.1446 161.525 45.9159C162.174 45.4728 162.755 45.27 162.934 45.2087C163.372 45.0585 163.716 45.0026 163.754 44.9959C163.918 44.9675 163.984 44.9662 163.841 44.9788C163.609 44.9993 163.168 45.0275 162.462 45.0599C161.077 45.1235 158.952 45.1915 156.06 45.2631L156.356 57.2594C159.268 57.1874 161.496 57.1169 163.013 57.0473C163.757 57.0131 164.404 56.9758 164.897 56.9323C165.118 56.9128 165.456 56.8798 165.801 56.82C165.93 56.7976 166.342 56.7261 166.825 56.5604C167.027 56.4912 167.625 56.2807 168.286 55.8299C168.676 55.5639 170.914 53.9943 170.914 50.8613H158.914ZM162.068 49.9748C161.888 49.1538 161.763 48.5528 161.686 48.1487C161.646 47.9435 161.627 47.8298 161.62 47.784C161.617 47.7611 161.621 47.7879 161.628 47.8487C161.631 47.8785 161.654 48.0832 161.654 48.3696H149.654C149.654 49.1909 149.848 50.1336 149.9 50.4055C150.007 50.9653 150.159 51.687 150.348 52.5477L162.068 49.9748ZM155.654 42.3696H155.562V54.3696H155.654V42.3696ZM151.42 44.0286C149.404 45.9524 148.321 46.4436 148.09 46.51L151.406 58.0428C154.456 57.1658 157.25 55.0525 159.704 52.7107L151.42 44.0286ZM148.125 46.4999C146.499 46.9569 145.658 47.0454 145.38 47.0454V59.0454C147.276 59.0454 149.347 58.6212 151.371 58.0528L148.125 46.4999ZM145.38 47.0454C144.567 47.0454 142.956 46.8238 140.297 46.0918L137.112 57.6612C140.113 58.4877 142.952 59.0454 145.38 59.0454V47.0454ZM141.219 46.4287C139.613 45.6873 138.627 44.9376 138.035 44.2972L129.223 52.4421C131.133 54.5087 133.531 56.0969 136.19 57.3242L141.219 46.4287ZM138.113 44.3834C137.273 43.4381 136.721 42.7008 136.382 42.1596C136.022 41.5851 136.031 41.4376 136.077 41.6502L124.351 44.1994C125.008 47.222 127.068 50.0196 129.144 52.3558L138.113 44.3834ZM135.919 41.0664C135.282 39.11 134.892 36.5579 134.892 33.2964H122.892C122.892 37.4587 123.383 41.3255 124.509 44.7832L135.919 41.0664ZM134.892 33.2964C134.892 30.8782 135.076 27.9779 135.468 24.5684L123.546 23.1982C123.118 26.9254 122.892 30.3005 122.892 33.2964H134.892ZM130.939 29.7098L142.075 26.972L139.21 15.319L128.074 18.0568L130.939 29.7098ZM135.072 23.3739L135.133 23.5277L146.275 19.071L146.213 18.9172L135.072 23.3739ZM134.764 20.4562C134.296 23.7532 134.027 26.6131 134.027 28.9282H146.027C146.027 27.4289 146.21 25.2028 146.645 22.1425L134.764 20.4562ZM134.027 28.9282C134.027 31.8457 134.533 34.8995 135.424 38.0403L146.969 34.7664C146.301 32.4111 146.027 30.4814 146.027 28.9282H134.027ZM135.477 38.2168C136.676 41.9997 139.533 47.4482 145.841 47.4482V35.4482C146.191 35.4482 146.588 35.5274 146.961 35.7026C147.318 35.8704 147.513 36.0599 147.571 36.1229C147.62 36.1758 147.552 36.1166 147.413 35.8495C147.277 35.5854 147.102 35.1789 146.916 34.5899L135.477 38.2168ZM145.841 47.4482C148.034 47.4482 150.295 46.9702 152.349 45.7171C154.422 44.4532 155.889 42.6414 156.854 40.619L146.025 35.4484C145.958 35.5898 145.921 35.6256 145.94 35.6026C145.95 35.5917 145.969 35.5711 145.999 35.5456C146.029 35.5199 146.064 35.4947 146.101 35.4721C146.138 35.4496 146.17 35.4343 146.193 35.4247C146.215 35.4153 146.223 35.4142 146.212 35.4171C146.188 35.4231 146.074 35.4482 145.841 35.4482V47.4482ZM156.978 40.3414C157.633 38.7715 157.968 36.7489 158.195 34.8856L146.284 33.4298C146.184 34.2501 146.084 34.8628 145.994 35.2984C145.896 35.7772 145.844 35.8633 145.901 35.726L156.978 40.3414ZM158.24 34.1577C158.24 31.3234 157.605 26.9936 156.563 21.5804L144.779 23.8483C145.829 29.3042 146.24 32.6033 146.24 34.1577H158.24ZM156.5 21.2926C156.315 20.5332 156.194 19.9574 156.122 19.5416C156.042 19.0781 156.056 18.9937 156.056 19.146H144.056C144.056 20.6464 144.436 22.4741 144.842 24.1361L156.5 21.2926ZM151.5 24.9696L163.159 22.078L160.27 10.4308L148.611 13.3224L151.5 24.9696ZM182.355 9.979L182.784 3.99434L182.57 3.979H182.355V9.979ZM193.922 10.8711L192.573 16.7174L193.239 16.8711H193.922V10.8711ZM194.691 22.7451L188.7 23.0711L188.998 28.5563L194.488 28.7417L194.691 22.7451ZM206.78 23.2681H212.78V19.5599L209.464 17.9015L206.78 23.2681ZM206.78 23.3604L212.753 23.9292L212.78 23.6454V23.3604H206.78ZM205.796 31.7583V25.7583H205.412L205.031 25.8073L205.796 31.7583ZM195.214 32.8042L194.669 26.829L188.021 27.4355L189.33 33.9809L195.214 32.8042ZM196.537 56.0908L199.22 61.4574L202.74 59.6975L202.528 55.7678L196.537 56.0908ZM196.352 56.1831L195.731 62.1509L197.471 62.332L199.035 61.5497L196.352 56.1831ZM175.003 53.9067L169.637 56.59L170.871 59.0583L173.548 59.7276L175.003 53.9067ZM174.911 53.7222L168.993 52.7358L168.672 54.6603L169.545 56.4054L174.911 53.7222ZM178.172 34.4961L183.687 36.8596L187.271 28.4961H178.172V34.4961ZM178.08 34.4961V28.4961H177.8L177.522 28.522L178.08 34.4961ZM169.835 35.2651V41.2651H170.115L170.393 41.2392L169.835 35.2651ZM168.882 21.9761V15.9761H162.525L162.892 22.3227L168.882 21.9761ZM180.171 22.3145L179.97 28.3111L185.26 28.4885L186.096 23.2618L180.171 22.3145ZM182.263 9.979V3.979H179.175L177.381 6.49157L182.263 9.979ZM181.927 15.9637C185.646 16.2301 188.458 16.4368 190.369 16.5842C191.327 16.658 192.043 16.7159 192.529 16.7581C192.774 16.7795 192.938 16.795 193.036 16.8051C193.337 16.8362 192.987 16.8131 192.573 16.7174L195.271 5.02475C194.923 4.94432 194.611 4.90785 194.587 4.90478C194.477 4.89071 194.366 4.87865 194.272 4.86886C194.078 4.84884 193.839 4.82681 193.569 4.80334C193.024 4.75589 192.262 4.6945 191.292 4.6197C189.347 4.46972 186.509 4.26114 182.784 3.99434L181.927 15.9637ZM193.922 16.8711C192.336 16.8711 191.126 16.2576 190.387 15.7187C189.685 15.2061 189.251 14.6544 189.027 14.3386C188.592 13.7227 188.38 13.1698 188.313 12.9926C188.152 12.5631 188.081 12.2155 188.067 12.1497C188.041 12.0236 188.026 11.9292 188.02 11.892C188.013 11.8476 188.009 11.8188 188.009 11.8122C188.008 11.8096 188.018 11.8955 188.038 12.1243C188.075 12.5552 188.125 13.2471 188.188 14.2274C188.314 16.1743 188.485 19.1176 188.7 23.0711L200.682 22.4192C200.466 18.4566 200.293 15.4629 200.163 13.4518C200.098 12.4531 200.042 11.6607 199.994 11.1021C199.972 10.8362 199.945 10.551 199.913 10.301C199.9 10.2012 199.869 9.96036 199.811 9.68525C199.791 9.58857 199.714 9.21776 199.547 8.77276C199.477 8.5879 199.263 8.0291 198.824 7.40941C198.607 7.10195 197.039 4.87109 193.922 4.87109V16.8711ZM194.488 28.7417C198.432 28.8748 201.39 28.9843 203.376 29.0702C204.373 29.1134 205.097 29.1493 205.566 29.1781C205.809 29.1929 205.936 29.2029 205.982 29.2072C206.013 29.2101 205.953 29.2054 205.846 29.1899C205.797 29.1828 205.662 29.1627 205.484 29.1243C205.465 29.12 204.824 28.998 204.097 28.6346L209.464 17.9015C208.727 17.533 208.068 17.4057 208.023 17.3959C207.82 17.352 207.652 17.3263 207.563 17.3133C207.375 17.2861 207.203 17.269 207.093 17.2587C206.857 17.2368 206.58 17.2177 206.298 17.2004C205.72 17.165 204.911 17.1254 203.894 17.0814C201.85 16.993 198.846 16.882 194.893 16.7485L194.488 28.7417ZM200.78 23.2681V23.3604H212.78V23.2681H200.78ZM200.807 22.7915C200.542 25.5811 200.331 27.6277 200.175 28.9603C200.095 29.6405 200.038 30.0609 200.003 30.2787C199.981 30.4134 199.988 30.3424 200.03 30.1769C200.04 30.1344 200.12 29.8003 200.299 29.3791C200.375 29.2014 200.609 28.663 201.069 28.0701C201.307 27.7636 201.75 27.2525 202.442 26.7849C203.165 26.2963 204.314 25.7583 205.796 25.7583V37.7583C208.712 37.7583 210.271 35.7859 210.547 35.4301C211.016 34.8263 211.259 34.2715 211.344 34.0719C211.541 33.607 211.641 33.2073 211.674 33.0773C211.759 32.7368 211.816 32.4034 211.85 32.1881C211.928 31.7061 212.009 31.0768 212.093 30.3573C212.265 28.8906 212.486 26.7383 212.753 23.9292L200.807 22.7915ZM205.031 25.8073C203.729 25.9746 200.327 26.3127 194.669 26.829L195.759 38.7794C201.339 38.2703 204.991 37.9111 206.561 37.7093L205.031 25.8073ZM189.33 33.9809C189.255 33.6042 189.235 33.276 189.253 33.4746C189.256 33.5058 189.261 33.5763 189.27 33.7C189.288 33.9421 189.312 34.3071 189.343 34.8055C189.405 35.7976 189.49 37.2592 189.6 39.1968C189.82 43.069 190.135 48.8068 190.545 56.4138L202.528 55.7678C202.118 48.158 201.802 42.4063 201.581 38.5163C201.471 36.5728 201.383 35.0852 201.32 34.0598C201.288 33.5494 201.261 33.1387 201.239 32.838C201.229 32.6903 201.218 32.5476 201.207 32.4239C201.202 32.3638 201.194 32.2837 201.185 32.1977C201.183 32.1793 201.157 31.9243 201.097 31.6275L189.33 33.9809ZM193.853 50.7243L193.669 50.8165L199.035 61.5497L199.22 61.4574L193.853 50.7243ZM196.973 50.2154C189.981 49.4875 184.712 48.9344 181.161 48.5558C179.385 48.3664 178.046 48.2214 177.141 48.1205C176.686 48.0698 176.353 48.0317 176.133 48.0053C176.021 47.9918 175.958 47.9837 175.93 47.98C175.716 47.9513 176.072 47.9891 176.459 48.0859L173.548 59.7276C173.745 59.7769 173.904 59.8056 173.952 59.8144C174.024 59.8274 174.085 59.8371 174.124 59.8432C174.203 59.8555 174.276 59.8657 174.33 59.8728C174.441 59.8878 174.569 59.9037 174.702 59.9197C174.973 59.9523 175.346 59.9949 175.812 60.0467C176.746 60.1509 178.107 60.2982 179.889 60.4882C183.455 60.8684 188.736 61.4227 195.731 62.1509L196.973 50.2154ZM180.37 51.2235L180.278 51.0389L169.545 56.4054L169.637 56.59L180.37 51.2235ZM180.829 54.7086C181.885 48.373 182.684 43.6092 183.226 40.4136C183.497 38.8141 183.703 37.6166 183.843 36.8143C183.914 36.4104 183.966 36.123 184 35.9403C184.008 35.8959 184.014 35.8616 184.019 35.8359C184.025 35.8091 184.027 35.7984 184.026 35.7997C184.026 35.8007 184.025 35.809 184.022 35.8227C184.019 35.835 184.013 35.8622 184.004 35.899C183.997 35.9291 183.979 36.0044 183.952 36.1023C183.948 36.1174 183.86 36.4561 183.687 36.8596L172.657 32.1326C172.482 32.5406 172.391 32.8868 172.384 32.9125C172.354 33.021 172.333 33.11 172.322 33.1568C172.299 33.2549 172.281 33.3418 172.27 33.3932C172.247 33.5044 172.224 33.6286 172.202 33.747C172.156 33.9916 172.096 34.3275 172.024 34.7426C171.877 35.5784 171.667 36.8021 171.395 38.407C170.85 41.6201 170.049 46.3975 168.993 52.7358L180.829 54.7086ZM178.172 28.4961H178.08V40.4961H178.172V28.4961ZM177.522 28.522L169.278 29.2911L170.393 41.2392L178.637 40.4702L177.522 28.522ZM169.835 29.2651C172.213 29.2651 173.688 30.6025 174.217 31.1691C174.793 31.7866 175.098 32.3796 175.215 32.6189C175.469 33.1391 175.582 33.573 175.608 33.6698C175.652 33.8357 175.678 33.9623 175.688 34.0163C175.7 34.0793 175.707 34.1227 175.709 34.1379C175.714 34.1671 175.702 34.0921 175.677 33.8403C175.631 33.3719 175.568 32.6085 175.489 31.5134C175.334 29.3415 175.128 26.053 174.872 21.6294L162.892 22.3227C163.149 26.7586 163.358 30.1146 163.52 32.3723C163.601 33.4921 163.673 34.3899 163.736 35.0289C163.766 35.3307 163.804 35.671 163.851 35.9771C163.87 36.0982 163.918 36.405 164.012 36.7567C164.047 36.8881 164.17 37.3479 164.432 37.8854C164.553 38.1334 164.862 38.7328 165.442 39.3547C165.975 39.9256 167.454 41.2651 169.835 41.2651V29.2651ZM168.882 27.9761C169.551 27.9761 173.164 28.0828 179.97 28.3111L180.372 16.3178C173.726 16.0949 169.813 15.9761 168.882 15.9761V27.9761ZM186.096 23.2618C186.741 19.2263 187.235 16.2009 187.579 14.1737C187.752 13.1551 187.882 12.4173 187.972 11.939C188.018 11.6923 188.045 11.5625 188.055 11.5148C188.062 11.4823 188.05 11.5438 188.02 11.6517C188.007 11.7002 187.967 11.8394 187.903 12.0203C187.87 12.1114 187.811 12.2699 187.724 12.4631C187.656 12.6137 187.471 13.011 187.146 13.4664L177.381 6.49157C176.843 7.24412 176.608 7.96731 176.601 7.98783C176.527 8.19329 176.479 8.36463 176.454 8.45314C176.402 8.64098 176.363 8.81343 176.338 8.92287C176.286 9.15907 176.232 9.43718 176.178 9.72241C176.068 10.308 175.924 11.1301 175.748 12.1674C175.394 14.252 174.893 17.3225 174.247 21.3671L186.096 23.2618ZM182.263 15.979H182.355V3.979H182.263V15.979Z" fill="#2F5CA3"/>
</svg>
