<svg width="411" height="69" viewBox="0 0 411 69" fill="none" xmlns="http://www.w3.org/2000/svg">
<path d="M25.8398 3.7959C26.1885 3.87793 30.6489 4.68799 39.2212 6.22607V6.2876C38.1138 38.6079 37.5396 54.9526 37.4985 55.3218L37.3755 55.3833C30.5054 54.645 26.9883 54.2554 26.8242 54.2144C26.8242 54.1733 26.8037 54.1528 26.7627 54.1528C26.4961 42.3403 26.3628 35.501 26.3628 33.6348L26.3013 32.5889L14.8271 34.3115L15.6885 53.23L5.26025 56.1831C5.17822 56.1831 4.90137 53.5684 4.42969 48.3389C4.24512 46.9443 2.76855 32.7119 0 5.6416C0 5.55957 4.46045 5.29297 13.3813 4.8418C13.4839 4.8418 13.812 11.5684 14.3657 25.0215L14.4272 25.3291L26.1782 25.6675L25.7783 3.85742C25.8193 3.85742 25.8398 3.83691 25.8398 3.7959ZM60.5083 18.6846H61.5542C66.7427 18.6846 71.3467 20.8994 75.3662 25.3291C77.8066 28.6514 79.0269 32.0044 79.0269 35.3882V36.2188C79.0269 41.0176 76.8838 45.2627 72.5977 48.9541C69.0908 51.5996 65.4097 52.9224 61.5542 52.9224H60.5083C55.3403 52.9224 50.7466 50.7075 46.7271 46.2778C44.2866 42.9556 43.0664 39.6025 43.0664 36.2188V35.3882C43.0664 30.5894 45.1992 26.3442 49.4648 22.6528C52.9922 20.0073 56.6733 18.6846 60.5083 18.6846ZM54.1099 36.6187C54.1099 38.9565 55.3506 40.8535 57.832 42.3096C58.96 42.7812 60.0161 43.0171 61.0005 43.0171C63.5229 43.0171 65.5225 41.8584 66.999 39.541C67.5527 38.5156 67.8296 37.4902 67.8296 36.4648C67.8296 34.1064 66.5786 32.2095 64.0767 30.7739C62.9487 30.2817 61.8926 30.0356 60.9082 30.0356C58.4062 30.0356 56.4067 31.2046 54.9097 33.5425C54.3765 34.5474 54.1099 35.5728 54.1099 36.6187ZM126.492 16.1929C131.578 18.1411 136.838 20.2534 142.273 22.5298V22.5913C137.72 33.2554 134.87 39.7153 133.721 41.9712C132.347 44.5552 130.481 47.293 128.123 50.1846C126.338 52.0303 124.688 52.9531 123.17 52.9531C123.108 52.9531 123.026 52.9736 122.924 53.0146C121.017 53.0146 118.709 51.5791 116.002 48.708C114.034 46.8623 112.465 44.7808 111.296 42.4634C110.599 40.4536 110.188 39.4487 110.065 39.4487C110.065 39.6538 109.173 41.2739 107.389 44.3091C104.867 47.0571 102.888 48.7388 101.452 49.354C98.9707 51.0972 97.043 51.9688 95.6689 51.9688C93.3105 51.9688 91.4443 50.8306 90.0703 48.5542C88.6963 46.811 87.1172 43.1504 85.333 37.5723C84.6973 35.1318 83.4258 28.8667 81.5186 18.7769L81.6724 18.7153C82.6157 18.7153 87.8247 18.4077 97.2993 17.7925L97.3916 17.9771C97.6992 22.8374 98.0171 26.6621 98.3452 29.4512C98.6323 30.7637 99.1245 32.1172 99.8218 33.5117C100.047 33.8193 100.458 34.1167 101.052 34.4038C102.857 34.4038 104.672 32.0659 106.497 27.3901C108.876 20.6636 110.117 17.2798 110.219 17.2388C114.177 26.7339 116.7 32.3223 117.787 34.0039C118.463 34.6396 118.976 34.9575 119.325 34.9575C120.535 34.9575 121.734 33.2246 122.924 29.7588C123.949 25.9648 125.108 21.4429 126.4 16.1929H126.492ZM172.143 9.979C179.587 10.5122 183.442 10.8096 183.709 10.8711C183.791 10.8711 184.047 14.8291 184.478 22.7451C192.374 23.0117 196.403 23.186 196.567 23.2681V23.3604C196.034 28.959 195.706 31.7583 195.583 31.7583C194.147 31.9429 190.62 32.2915 185.001 32.8042C185.062 33.1118 185.503 40.874 186.324 56.0908L186.139 56.1831C172.153 54.7271 165.037 53.9683 164.791 53.9067L164.698 53.7222C166.811 41.0483 167.897 34.6396 167.959 34.4961H167.867L159.623 35.2651C159.5 35.2651 159.182 30.8354 158.669 21.9761C159.469 21.9761 163.232 22.0889 169.958 22.3145C171.25 14.2344 171.948 10.1226 172.05 9.979H172.143ZM219.177 18.6846H220.223C225.412 18.6846 230.016 20.8994 234.035 25.3291C236.476 28.6514 237.696 32.0044 237.696 35.3882V36.2188C237.696 41.0176 235.553 45.2627 231.267 48.9541C227.76 51.5996 224.079 52.9224 220.223 52.9224H219.177C214.009 52.9224 209.416 50.7075 205.396 46.2778C202.956 42.9556 201.735 39.6025 201.735 36.2188V35.3882C201.735 30.5894 203.868 26.3442 208.134 22.6528C211.661 20.0073 215.342 18.6846 219.177 18.6846ZM212.779 36.6187C212.779 38.9565 214.02 40.8535 216.501 42.3096C217.629 42.7812 218.685 43.0171 219.669 43.0171C222.192 43.0171 224.191 41.8584 225.668 39.541C226.222 38.5156 226.499 37.4902 226.499 36.4648C226.499 34.1064 225.248 32.2095 222.746 30.7739C221.618 30.2817 220.562 30.0356 219.577 30.0356C217.075 30.0356 215.076 31.2046 213.579 33.5425C213.045 34.5474 212.779 35.5728 212.779 36.6187ZM277.532 0.719727H277.901C279.604 0.719727 281.777 1.12988 284.423 1.9502C286.187 2.44238 287.725 3.33447 289.037 4.62646C289.652 5.01611 290.391 5.80566 291.252 6.99512C291.949 8.61523 292.298 10.0303 292.298 11.2402C292.359 11.2402 292.39 11.4043 292.39 11.7324C292.39 15.0342 290.78 18.3975 287.561 21.8223C289.529 22.458 290.832 23.0938 291.467 23.7295C292.923 24.7754 294.154 25.8418 295.159 26.9287C296.061 28.0771 296.769 29.2358 297.281 30.4048C298.143 32.5581 298.573 34.7114 298.573 36.8647C298.204 39.9204 297.794 41.8379 297.343 42.6172C296.522 44.832 295.487 46.7495 294.236 48.3696C293.108 49.9692 291.806 51.251 290.329 52.2148C289.652 52.7891 287.263 53.6401 283.162 54.7681C280.126 55.5269 275.953 55.9062 270.642 55.9062C270.642 55.9473 268.068 56.0396 262.92 56.1831C262.797 56.1831 262.367 53.1787 261.628 47.1699C261.485 46.5342 259.547 32.3325 255.814 4.56494C261.905 2.90381 267.042 1.74512 271.226 1.08887C273.174 0.842773 275.276 0.719727 277.532 0.719727ZM270.949 9.979C271.031 14.1831 271.072 17.8027 271.072 20.8379H271.165C272.908 20.6328 274.159 20.5303 274.917 20.5303H276.394C277.317 20.3047 278.312 19.6279 279.378 18.5C280.465 17.0029 281.008 15.4546 281.008 13.855C280.906 12.9526 280.485 12.1323 279.747 11.394C278.332 10.2456 276.199 9.67139 273.349 9.67139C271.954 9.81494 271.154 9.91748 270.949 9.979ZM271.288 31.543C271.39 39.2129 271.441 43.6426 271.441 44.832C272.118 44.9961 273.8 45.1396 276.486 45.2627C278.455 45.2627 280.465 44.9961 282.516 44.4629C284.115 43.9092 285.489 43.0376 286.638 41.8481C287.622 40.4946 288.166 39.377 288.268 38.4951C288.268 35.7471 287.038 33.7681 284.577 32.5581C283.326 31.5532 280.598 31.0508 276.394 31.0508C274.548 31.0508 272.846 31.2148 271.288 31.543ZM334.78 16.2544C334.903 16.2544 335.477 22.3965 336.502 34.6807C336.543 34.7012 337.036 40.0947 337.979 50.8613C337.979 50.9844 335.077 51.1177 329.273 51.2612C328.904 49.5796 328.72 48.6157 328.72 48.3696H328.627C326.392 50.5024 324.454 51.8047 322.813 52.2764C320.988 52.7891 319.532 53.0454 318.445 53.0454C316.825 53.0454 314.6 52.6558 311.77 51.8765C309.637 50.8921 307.945 49.7231 306.694 48.3696C304.726 46.1548 303.587 44.3398 303.28 42.9248C302.398 40.2178 301.957 37.0083 301.957 33.2964C301.957 30.5894 302.162 27.4517 302.572 23.8833L313.708 21.1455L313.77 21.2993C313.318 24.478 313.093 27.021 313.093 28.9282C313.093 31.1636 313.482 33.6553 314.262 36.4033C315.328 39.7666 316.876 41.4482 318.907 41.4482C321.552 41.4482 323.418 40.3101 324.505 38.0337C324.813 37.2954 325.08 36.0034 325.305 34.1577C325.305 31.9634 324.782 28.1489 323.736 22.7144C323.326 21.0327 323.121 19.8433 323.121 19.146L334.78 16.2544ZM365.049 13.0859C373.888 13.9473 378.328 14.4189 378.369 14.501C377.959 22.458 377.518 27.9028 377.046 30.8354C377.046 31.4302 376.534 33.481 375.508 36.9878C374.155 41.1919 372.812 44.2476 371.479 46.1548C371.376 46.5854 370.156 48.4209 367.818 51.6611C365.172 54.7578 363.48 56.6548 362.742 57.3521C360.343 59.6284 357.543 61.9458 354.344 64.3042C353.544 64.9194 351.576 66.2935 348.438 68.4263H348.253L344.808 59.0132C347.433 57.0444 350.068 54.7988 352.714 52.2764C354.724 50.2256 356.539 48.062 358.159 45.7856C358.2 45.6626 358.682 44.8936 359.604 43.4785V43.417C356.815 42.4326 354.416 41.2739 352.406 39.9409C351.176 39.0591 350.048 38.2183 349.022 37.4185C346.562 35.1626 344.839 33.3271 343.854 31.9121C342.706 30.1689 342.07 28.9692 341.947 28.313L352.345 25.0215C353.821 27.585 355.288 29.7588 356.744 31.543C359.225 33.7988 361.266 35.3267 362.865 36.1265C363.624 33.9731 364.208 31.6353 364.619 29.1128C364.865 27.4722 365.07 25.124 365.234 22.0684C365.152 18.9307 365.049 15.957 364.926 13.1475L365.049 13.0859ZM397.134 3.91895C401.646 3.91895 405.409 5.78516 408.423 9.51758C410.023 11.9785 410.823 14.3574 410.823 16.6543V16.9312C410.823 17.0747 410.843 17.1772 410.884 17.2388C410.884 21.0532 409.305 24.5703 406.147 27.79C404.834 28.918 403.614 29.7793 402.486 30.374C402.24 30.374 402.056 30.8047 401.933 31.666L400.148 37.8491H400.025C398.979 37.3569 397.913 37.1108 396.826 37.1108H396.488C395.647 37.1108 394.796 37.2544 393.935 37.5415L392.612 24.6523C395.565 23.8115 397.718 22.9707 399.072 22.1299C400.466 21.1045 401.164 20.1201 401.164 19.1768C401.287 18.9922 401.348 18.6846 401.348 18.2539V17.9155C401.348 15.9058 400.282 14.3984 398.149 13.3936C397.554 13.25 397.021 13.1782 396.549 13.1782C395.36 13.1782 394.068 13.8242 392.673 15.1162C391.361 16.8799 390.561 18.2847 390.274 19.3306H390.212C384.901 16.8901 382.143 15.5981 381.938 15.4546V15.3931C382.266 13.4653 383.445 11.3223 385.475 8.96387C388.797 5.60059 392.684 3.91895 397.134 3.91895ZM396.611 39.9409C398.908 39.9409 400.528 41.1406 401.471 43.54C401.574 43.9707 401.646 44.4321 401.687 44.9243C401.687 47.1392 400.528 48.7593 398.21 49.7847C397.534 49.9282 397.042 50 396.734 50C394.478 50 392.878 48.8721 391.935 46.6162C391.75 46.165 391.658 45.6216 391.658 44.9858C391.658 42.6069 392.93 40.9663 395.473 40.064C396.026 39.9819 396.406 39.9409 396.611 39.9409Z" fill="#FECC00"/>
<path d="M25.8398 3.7959L27.2141 -2.0446L19.8398 -3.77972V3.7959H25.8398ZM39.2212 6.22607H45.2212V1.20681L40.2808 0.320384L39.2212 6.22607ZM39.2212 6.2876L45.2177 6.49306L45.2212 6.39036V6.2876H39.2212ZM37.4985 55.3218L40.1818 60.6883L43.1014 59.2286L43.4618 55.9844L37.4985 55.3218ZM37.3755 55.3833L36.7344 61.349L38.4845 61.537L40.0588 60.7499L37.3755 55.3833ZM26.8242 54.2144H20.8242V58.899L25.369 60.0352L26.8242 54.2144ZM26.7627 54.1528L20.7642 54.2882L20.8966 60.1528H26.7627V54.1528ZM26.3628 33.6348H32.3628V33.4584L32.3524 33.2824L26.3628 33.6348ZM26.3013 32.5889L32.2909 32.2365L31.9053 25.6803L25.4104 26.6554L26.3013 32.5889ZM14.8271 34.3115L13.9363 28.378L8.58735 29.1811L8.83336 34.5844L14.8271 34.3115ZM15.6885 53.23L17.3233 59.003L21.8985 57.7073L21.6823 52.9571L15.6885 53.23ZM5.26025 56.1831V62.1831H6.09343L6.89508 61.9561L5.26025 56.1831ZM4.42969 48.3389L10.4054 47.7999L10.3942 47.6755L10.3778 47.5516L4.42969 48.3389ZM0 5.6416H-6V5.94762L-5.96886 6.25205L0 5.6416ZM13.3813 4.8418V-1.1582H13.2297L13.0783 -1.15054L13.3813 4.8418ZM14.3657 25.0215L8.3708 25.2682L8.39012 25.7376L8.48224 26.1982L14.3657 25.0215ZM14.4272 25.3291L8.54376 26.5058L9.48043 31.1891L14.2545 31.3266L14.4272 25.3291ZM26.1782 25.6675L26.0055 31.665L32.2925 31.846L32.1772 25.5575L26.1782 25.6675ZM25.7783 3.85742V-2.14258H19.6673L19.7793 3.96742L25.7783 3.85742ZM24.4656 9.6364C25.0222 9.76735 29.7675 10.6257 38.1616 12.1318L40.2808 0.320384C35.9958 -0.448457 32.7426 -1.0346 30.5188 -1.43847C28.1432 -1.8699 27.1902 -2.05022 27.2141 -2.0446L24.4656 9.6364ZM33.2212 6.22607V6.2876H45.2212V6.22607H33.2212ZM33.2247 6.08213C32.671 22.2419 32.2507 34.406 31.9637 42.5757C31.8201 46.6611 31.71 49.7447 31.6333 51.8288C31.5474 54.1643 31.513 54.8596 31.5352 54.6592L43.4618 55.9844C43.5046 55.5994 43.5574 54.1132 43.6252 52.2702C43.7023 50.1758 43.8127 47.0841 43.9563 42.997C44.2435 34.822 44.6639 22.6536 45.2177 6.49306L33.2247 6.08213ZM34.8153 49.9552L34.6922 50.0167L40.0588 60.7499L40.1818 60.6883L34.8153 49.9552ZM38.0166 49.4176C34.5832 49.0487 31.9942 48.7675 30.2458 48.5738C29.3699 48.4768 28.7147 48.4028 28.2732 48.3511C28.05 48.325 27.8973 48.3065 27.804 48.2945C27.7549 48.2883 27.7434 48.2865 27.7556 48.2883C27.7604 48.289 27.7942 48.2939 27.844 48.3022C27.8458 48.3025 28.038 48.3331 28.2794 48.3935L25.369 60.0352C25.6207 60.0981 25.8297 60.132 25.8548 60.1362C25.928 60.1485 25.9917 60.158 26.033 60.164C26.118 60.1763 26.2057 60.1879 26.2818 60.1976C26.4391 60.2177 26.6418 60.2421 26.8788 60.2698C27.3575 60.3259 28.0418 60.4031 28.9244 60.5009C30.693 60.6968 33.2977 60.9796 36.7344 61.349L38.0166 49.4176ZM32.8242 54.2144C32.8242 53.269 32.5838 51.4579 31.0515 49.9256C29.5191 48.3932 27.7081 48.1528 26.7627 48.1528V60.1528C25.8583 60.1528 24.078 59.9227 22.5662 58.4109C21.0544 56.899 20.8242 55.1187 20.8242 54.2144H32.8242ZM32.7612 54.0174C32.4936 42.1606 32.3628 35.4141 32.3628 33.6348H20.3628C20.3628 35.5879 20.4986 42.5201 20.7642 54.2882L32.7612 54.0174ZM32.3524 33.2824L32.2909 32.2365L20.3116 32.9412L20.3731 33.9871L32.3524 33.2824ZM25.4104 26.6554L13.9363 28.378L15.718 40.245L27.1921 38.5224L25.4104 26.6554ZM8.83336 34.5844L9.69468 53.5029L21.6823 52.9571L20.8209 34.0386L8.83336 34.5844ZM14.0536 47.457L3.62543 50.4101L6.89508 61.9561L17.3233 59.003L14.0536 47.457ZM5.26025 50.1831C7.34644 50.1831 8.73665 51.2259 9.3359 51.7816C9.95233 52.3532 10.3016 52.9212 10.4501 53.1789C10.7598 53.7161 10.9091 54.1759 10.948 54.2954C11.053 54.6182 11.1002 54.8656 11.1038 54.8838C11.1246 54.9875 11.125 55.0121 11.1065 54.877C11.0747 54.6453 11.0255 54.23 10.9577 53.5903C10.8244 52.331 10.6406 50.4077 10.4054 47.7999L-1.54605 48.8779C-1.30959 51.4995 -1.11907 53.4984 -0.975558 54.8538C-0.904869 55.5214 -0.839989 56.0867 -0.782069 56.5087C-0.755758 56.7004 -0.716546 56.9701 -0.663124 57.2372C-0.643133 57.3372 -0.581155 57.6459 -0.462792 58.0095C-0.417229 58.1495 -0.261746 58.6245 0.0538614 59.172C0.205337 59.4348 0.557446 60.0066 1.17663 60.5808C1.77864 61.139 3.17151 62.1831 5.26025 62.1831V50.1831ZM10.3778 47.5516C10.2087 46.2742 8.74718 32.1969 5.96886 5.03115L-5.96886 6.25205C-3.21007 33.2269 -1.71851 47.6145 -1.51844 49.1261L10.3778 47.5516ZM6 5.6416C6 7.43755 5.21934 8.73877 4.63871 9.44622C4.08066 10.1261 3.50084 10.5256 3.20108 10.7144C2.60201 11.0918 2.07629 11.2698 1.9222 11.3215C1.5304 11.453 1.21723 11.5101 1.16373 11.5202C1.05407 11.5409 0.974039 11.5523 0.94637 11.5562C0.928172 11.5587 0.914703 11.5604 0.906935 11.5614C0.898997 11.5624 0.894578 11.5629 0.894228 11.5629C0.894151 11.563 0.903719 11.5619 0.925074 11.5597C0.945949 11.5576 0.974192 11.5549 1.01076 11.5516C1.08464 11.5449 1.18136 11.5368 1.30387 11.5272C1.80469 11.4881 2.59638 11.4356 3.70332 11.3694C5.90508 11.2378 9.22804 11.0595 13.6844 10.8341L13.0783 -1.15054C8.61376 -0.924752 5.24604 -0.744186 2.98735 -0.609184C1.86407 -0.542046 0.983095 -0.484299 0.368795 -0.436285C0.0735807 -0.413211 -0.224189 -0.387516 -0.47606 -0.358565C-0.579242 -0.346705 -0.805411 -0.319937 -1.05919 -0.272099C-1.14754 -0.255444 -1.48684 -0.192144 -1.89606 -0.0547943C-2.05886 -0.000153542 -2.59112 0.180724 -3.19454 0.560809C-3.49648 0.750998 -4.07794 1.15183 -4.63707 1.83308C-5.2188 2.54185 -6 3.84437 -6 5.6416H6ZM13.3813 10.8418C11.2021 10.8418 9.7715 9.71039 9.16051 9.10494C8.54053 8.49058 8.20421 7.88567 8.06594 7.62046C7.77463 7.06169 7.64362 6.5867 7.61001 6.46555C7.51769 6.13279 7.47932 5.87377 7.47446 5.84247C7.45401 5.71099 7.44967 5.64412 7.45699 5.72166C7.468 5.83811 7.48676 6.07958 7.51281 6.48639C7.56362 7.28005 7.62977 8.50419 7.71147 10.1791C7.87438 13.5187 8.09408 18.545 8.3708 25.2682L20.3606 24.7747C20.0837 18.0448 19.8624 12.9813 19.6972 9.59438C19.6149 7.90597 19.5451 6.60765 19.4883 5.71967C19.4605 5.28565 19.4325 4.89651 19.4038 4.59255C19.3912 4.45988 19.3688 4.23536 19.332 3.99877C19.3189 3.91493 19.2728 3.61649 19.1732 3.25746C19.136 3.12317 19.0014 2.63833 18.7067 2.07299C18.5667 1.80449 18.2287 1.19712 17.6071 0.581118C16.9944 -0.0259743 15.5622 -1.1582 13.3813 -1.1582V10.8418ZM8.48224 26.1982L8.54376 26.5058L20.3107 24.1524L20.2492 23.8448L8.48224 26.1982ZM14.2545 31.3266L26.0055 31.665L26.3509 19.67L14.5999 19.3316L14.2545 31.3266ZM32.1772 25.5575L31.7773 3.74743L19.7793 3.96742L20.1792 25.7775L32.1772 25.5575ZM25.7783 9.85742C26.7237 9.85742 28.5348 9.61701 30.0671 8.08468C31.5994 6.55235 31.8398 4.74127 31.8398 3.7959H19.8398C19.8398 2.89154 20.07 1.11123 21.5818 -0.400599C23.0936 -1.91242 24.874 -2.14258 25.7783 -2.14258V9.85742ZM75.3662 25.3291L80.2018 21.777L80.0181 21.527L79.8096 21.2972L75.3662 25.3291ZM72.5977 48.9541L76.2111 53.744L76.3661 53.6271L76.5131 53.5004L72.5977 48.9541ZM46.7271 46.2778L41.8915 49.8299L42.0752 50.08L42.2837 50.3098L46.7271 46.2778ZM49.4648 22.6528L45.8648 17.8528L45.6971 17.9786L45.5386 18.1158L49.4648 22.6528ZM57.832 42.3096L54.7955 47.4845L55.1442 47.6891L55.5172 47.8451L57.832 42.3096ZM66.999 39.541L72.0592 42.7652L72.1755 42.5825L72.2785 42.3919L66.999 39.541ZM64.0767 30.7739L67.0627 25.5697L66.7776 25.4061L66.4763 25.2747L64.0767 30.7739ZM54.9097 33.5425L49.8568 30.3069L49.7246 30.5135L49.6096 30.7302L54.9097 33.5425ZM60.5083 24.6846H61.5542V12.6846H60.5083V24.6846ZM61.5542 24.6846C64.785 24.6846 67.8492 25.9738 70.9229 29.361L79.8096 21.2972C74.8441 15.825 68.7003 12.6846 61.5542 12.6846V24.6846ZM70.5306 28.8812C72.3831 31.4031 73.0269 33.5402 73.0269 35.3882H85.0269C85.0269 30.4686 83.2301 25.8997 80.2018 21.777L70.5306 28.8812ZM73.0269 35.3882V36.2188H85.0269V35.3882H73.0269ZM73.0269 36.2188C73.0269 38.9537 71.9058 41.6314 68.6822 44.4078L76.5131 53.5004C81.8618 48.894 85.0269 43.0814 85.0269 36.2188H73.0269ZM68.9842 44.1642C66.3667 46.1388 63.9277 46.9224 61.5542 46.9224V58.9224C66.8917 58.9224 71.8149 57.0604 76.2111 53.744L68.9842 44.1642ZM61.5542 46.9224H60.5083V58.9224H61.5542V46.9224ZM60.5083 46.9224C57.3051 46.9224 54.2495 45.6392 51.1704 42.2459L42.2837 50.3098C47.2436 55.7758 53.3756 58.9224 60.5083 58.9224V46.9224ZM51.5626 42.7258C49.7101 40.2038 49.0664 38.0667 49.0664 36.2188H37.0664C37.0664 41.1384 38.8631 45.7073 41.8915 49.8299L51.5626 42.7258ZM49.0664 36.2188V35.3882H37.0664V36.2188H49.0664ZM49.0664 35.3882C49.0664 32.6421 50.1875 29.9622 53.3911 27.1898L45.5386 18.1158C40.211 22.7262 37.0664 28.5367 37.0664 35.3882H49.0664ZM53.0648 27.4528C55.7156 25.4647 58.1605 24.6846 60.5083 24.6846V12.6846C55.1862 12.6846 50.2687 14.5499 45.8648 17.8528L53.0648 27.4528ZM48.1099 36.6187C48.1099 41.6018 50.9725 45.2412 54.7955 47.4845L60.8685 37.1347C60.5476 36.9463 60.3428 36.788 60.2194 36.6769C60.1585 36.6221 60.1189 36.58 60.095 36.5524C60.0713 36.5251 60.062 36.5109 60.0617 36.5106C60.0617 36.5105 60.068 36.5203 60.0768 36.5392C60.0856 36.5582 60.0939 36.58 60.1005 36.6024C60.1152 36.6527 60.1099 36.6662 60.1099 36.6187H48.1099ZM55.5172 47.8451C57.2066 48.5515 59.0542 49.0171 61.0005 49.0171V37.0171C60.978 37.0171 60.7134 37.011 60.1469 36.7741L55.5172 47.8451ZM61.0005 49.0171C65.7825 49.0171 69.5983 46.6273 72.0592 42.7652L61.9389 36.3169C61.62 36.8174 61.4083 36.9425 61.3837 36.9567C61.3641 36.9681 61.3432 36.9778 61.305 36.9876C61.2638 36.9982 61.169 37.0171 61.0005 37.0171V49.0171ZM72.2785 42.3919C73.2398 40.6117 73.8296 38.6146 73.8296 36.4648H61.8296C61.8296 36.4307 61.8351 36.4178 61.8294 36.4389C61.8228 36.4634 61.7974 36.5461 61.7196 36.6901L72.2785 42.3919ZM73.8296 36.4648C73.8296 31.4476 70.9403 27.7946 67.0627 25.5697L61.0906 35.9781C61.7412 36.3514 61.8935 36.5933 61.8825 36.5765C61.8757 36.5662 61.8543 36.528 61.8386 36.4748C61.8235 36.4234 61.8296 36.4117 61.8296 36.4648H73.8296ZM66.4763 25.2747C64.7749 24.5322 62.8974 24.0356 60.9082 24.0356V36.0356C60.8877 36.0356 61.1226 36.0312 61.677 36.2732L66.4763 25.2747ZM60.9082 24.0356C56.1085 24.0356 52.3136 26.4704 49.8568 30.3069L59.9625 36.7781C60.3001 36.2508 60.527 36.1116 60.5603 36.0921C60.5827 36.079 60.6023 36.0704 60.634 36.0622C60.6684 36.0533 60.7532 36.0356 60.9082 36.0356V24.0356ZM49.6096 30.7302C48.658 32.5235 48.1099 34.5079 48.1099 36.6187H60.1099C60.1099 36.6118 60.11 36.6011 60.1167 36.575C60.1241 36.5466 60.1463 36.4745 60.2098 36.3548L49.6096 30.7302ZM126.492 16.1929L128.638 10.5899L127.602 10.1929H126.492V16.1929ZM142.273 22.5298H148.273V18.5379L144.591 16.9957L142.273 22.5298ZM142.273 22.5913L147.791 24.9471L148.273 23.8185V22.5913H142.273ZM133.721 41.9712L139.019 44.7882L139.044 44.741L139.068 44.6933L133.721 41.9712ZM128.123 50.1846L132.436 54.3547L132.612 54.1728L132.772 53.9768L128.123 50.1846ZM122.924 53.0146V59.0146H124.079L125.152 58.5855L122.924 53.0146ZM116.002 48.708L120.368 44.5919L120.241 44.4573L120.106 44.3308L116.002 48.708ZM111.296 42.4634L105.627 44.43L105.759 44.8082L105.939 45.1656L111.296 42.4634ZM110.065 39.4487V33.4487H104.065V39.4487H110.065ZM107.389 44.3091L111.809 48.3664L112.239 47.8979L112.562 47.3497L107.389 44.3091ZM101.452 49.354L99.0886 43.8391L98.5144 44.0852L98.0032 44.4443L101.452 49.354ZM90.0703 48.5542L95.2071 45.4536L95.0139 45.1335L94.7824 44.8399L90.0703 48.5542ZM85.333 37.5723L79.5268 39.0848L79.5682 39.2437L79.6182 39.4002L85.333 37.5723ZM81.5186 18.7769L79.2902 13.206L74.7059 15.0397L75.623 19.8913L81.5186 18.7769ZM81.6724 18.7153V12.7153H80.5169L79.444 13.1445L81.6724 18.7153ZM97.2993 17.7925L102.666 15.1092L100.885 11.547L96.9105 11.8051L97.2993 17.7925ZM97.3916 17.9771L103.38 17.5981L103.303 16.3829L102.758 15.2938L97.3916 17.9771ZM98.3452 29.4512L92.3863 30.1522L92.4208 30.4452L92.4838 30.7334L98.3452 29.4512ZM99.8218 33.5117L94.4552 36.195L94.6826 36.6498L94.9833 37.0599L99.8218 33.5117ZM101.052 34.4038L98.4437 39.8071L99.6798 40.4038H101.052V34.4038ZM106.497 27.3901L112.086 29.5719L112.121 29.4818L112.154 29.3907L106.497 27.3901ZM110.219 17.2388L115.757 14.9302L113.482 9.47151L107.991 11.6679L110.219 17.2388ZM117.787 34.0039L112.748 37.2609L113.145 37.8757L113.679 38.377L117.787 34.0039ZM122.924 29.7588L128.599 31.7065L128.664 31.5173L128.716 31.3242L122.924 29.7588ZM126.4 16.1929V10.1929H121.697L120.574 14.7591L126.4 16.1929ZM124.346 21.7959C129.37 23.7203 134.573 25.8095 139.955 28.0639L144.591 16.9957C139.104 14.6974 133.786 12.5619 128.638 10.5899L124.346 21.7959ZM136.273 22.5298V22.5913H148.273V22.5298H136.273ZM136.755 20.2355C132.165 30.9858 129.408 37.2181 128.374 39.2491L139.068 44.6933C140.331 42.2125 143.275 35.5249 147.791 24.9471L136.755 20.2355ZM128.424 39.1542C127.275 41.3137 125.648 43.7256 123.473 46.3923L132.772 53.9768C135.314 50.8603 137.419 47.7966 139.019 44.7882L128.424 39.1542ZM123.809 46.0144C123.189 46.6554 122.787 46.9298 122.619 47.0237C122.471 47.1065 122.681 46.9531 123.17 46.9531V58.9531C127.135 58.9531 130.26 56.6062 132.436 54.3547L123.809 46.0144ZM123.17 46.9531C121.963 46.9531 121.034 47.3083 120.695 47.4438L125.152 58.5855C125.023 58.6371 124.805 58.7175 124.517 58.7894C124.246 58.8572 123.774 58.9531 123.17 58.9531V46.9531ZM122.924 47.0146C123.47 47.0146 123.519 47.2084 122.933 46.8436C122.367 46.4917 121.511 45.8047 120.368 44.5919L111.637 52.8241C113.201 54.4825 114.852 55.9488 116.593 57.0323C118.314 58.1031 120.47 59.0146 122.924 59.0146V47.0146ZM120.106 44.3308C118.629 42.9464 117.493 41.4263 116.653 39.7612L105.939 45.1656C107.437 48.1352 109.438 50.7783 111.899 53.0852L120.106 44.3308ZM116.964 40.4967C116.607 39.467 116.288 38.5906 116.02 37.935C115.897 37.6324 115.722 37.2213 115.512 36.8249C115.422 36.6555 115.204 36.2547 114.866 35.8189C114.705 35.6105 114.355 35.1818 113.812 34.7532C113.373 34.4063 112.052 33.4487 110.065 33.4487V45.4487C108.094 45.4487 106.791 44.499 106.372 44.1679C105.849 43.7549 105.521 43.3498 105.384 43.1728C105.094 42.7998 104.935 42.4931 104.911 42.4494C104.834 42.3042 104.829 42.2699 104.91 42.4698C105.053 42.819 105.287 43.45 105.627 44.43L116.964 40.4967ZM104.065 39.4487C104.065 38.9519 104.129 38.5613 104.168 38.3524C104.212 38.1221 104.261 37.9388 104.295 37.8223C104.362 37.5951 104.426 37.4308 104.451 37.368C104.503 37.2365 104.536 37.1759 104.508 37.2331C104.46 37.3302 104.348 37.547 104.14 37.9236C103.736 38.6585 103.101 39.7645 102.217 41.2685L112.562 47.3497C113.462 45.8185 114.165 44.5969 114.652 43.7117C114.891 43.2782 115.113 42.8618 115.289 42.5026C115.372 42.3317 115.488 42.0871 115.596 41.8159C115.649 41.6832 115.734 41.4602 115.815 41.1852C115.861 41.0261 116.065 40.3408 116.065 39.4487H104.065ZM102.969 40.2517C101.81 41.5147 100.867 42.4312 100.128 43.0591C99.3355 43.7324 99.0106 43.8726 99.0886 43.8391L103.816 54.8689C106.557 53.694 109.297 51.1037 111.809 48.3664L102.969 40.2517ZM98.0032 44.4443C96.9499 45.1842 96.183 45.6175 95.6734 45.8479C95.1088 46.1032 95.1688 45.9688 95.6689 45.9688V57.9688C97.5431 57.9688 99.254 57.3985 100.617 56.7822C102.035 56.141 103.473 55.2669 104.901 54.2637L98.0032 44.4443ZM95.6689 45.9688C95.5656 45.9688 95.5344 45.9568 95.5533 45.9619C95.5751 45.9678 95.6042 45.9802 95.6246 45.9926C95.675 46.0233 95.5022 45.9425 95.2071 45.4536L84.9335 51.6548C87.2286 55.457 90.9075 57.9688 95.6689 57.9688V45.9688ZM94.7824 44.8399C94.1696 44.0624 92.8596 41.4089 91.0478 35.7444L79.6182 39.4002C81.3748 44.8919 83.223 49.5596 85.3582 52.2685L94.7824 44.8399ZM91.1392 36.0597C90.5668 33.8622 89.336 27.8297 87.4142 17.6624L75.623 19.8913C77.5155 29.9037 78.8278 36.4015 79.5268 39.0848L91.1392 36.0597ZM83.7469 24.3477L83.9007 24.2862L79.444 13.1445L79.2902 13.206L83.7469 24.3477ZM81.6724 24.7153C82.871 24.7153 88.3831 24.3841 97.6881 23.7799L96.9105 11.8051C92.1771 12.1125 88.5199 12.3423 85.9329 12.4951C84.6382 12.5715 83.623 12.628 82.8801 12.6651C82.5081 12.6837 82.2157 12.6969 81.9967 12.7053C81.7566 12.7145 81.6685 12.7153 81.6724 12.7153V24.7153ZM91.9328 20.4758L92.025 20.6603L102.758 15.2938L102.666 15.1092L91.9328 20.4758ZM91.4036 18.356C91.7139 23.2584 92.0397 27.2063 92.3863 30.1522L104.304 28.7501C103.994 26.1179 103.685 22.4164 103.38 17.5981L91.4036 18.356ZM92.4838 30.7334C92.8926 32.6019 93.5702 34.4251 94.4552 36.195L105.188 30.8284C104.679 29.8093 104.372 28.9255 104.207 28.169L92.4838 30.7334ZM94.9833 37.0599C96.0704 38.5422 97.5253 39.3637 98.4437 39.8071L103.661 29.0005C103.593 28.9678 103.667 28.9963 103.82 29.1078C103.965 29.2124 104.307 29.4812 104.66 29.9635L94.9833 37.0599ZM101.052 40.4038C104.731 40.4038 107.184 38.0332 108.506 36.3297C109.929 34.497 111.088 32.1293 112.086 29.5719L100.908 25.2084C100.081 27.3268 99.4197 28.4659 99.0275 28.9711C98.8445 29.2068 98.8687 29.1085 99.1523 28.9254C99.4795 28.7141 100.141 28.4038 101.052 28.4038V40.4038ZM112.154 29.3907C113.341 26.0325 114.237 23.5313 114.845 21.8729C115.151 21.0373 115.372 20.451 115.515 20.0871C115.59 19.8942 115.62 19.8262 115.616 19.8343C115.613 19.8415 115.602 19.8667 115.584 19.9045C115.568 19.9378 115.532 20.0123 115.48 20.1099C115.443 20.1797 115.323 20.4037 115.134 20.6762C115.042 20.8085 114.85 21.0739 114.565 21.3741C114.38 21.5688 113.661 22.3243 112.448 22.8096L107.991 11.6679C106.774 12.1545 106.051 12.9129 105.862 13.1122C105.573 13.417 105.376 13.6885 105.279 13.8286C105.079 14.1167 104.945 14.3629 104.893 14.4613C104.772 14.6875 104.682 14.8893 104.639 14.9874C104.538 15.2147 104.435 15.4703 104.343 15.7055C104.15 16.1978 103.893 16.8856 103.579 17.7418C102.946 19.4672 102.032 22.0212 100.84 25.3896L112.154 29.3907ZM104.681 19.5473C106.67 24.3179 108.315 28.1493 109.611 31.0198C110.838 33.7383 111.918 35.9769 112.748 37.2609L122.826 30.7469C122.569 30.3493 121.844 28.9529 120.548 26.0829C119.322 23.3651 117.727 19.6547 115.757 14.9302L104.681 19.5473ZM113.679 38.377C114.17 38.8386 114.792 39.3692 115.517 39.8185C116.114 40.1887 117.486 40.9575 119.325 40.9575V28.9575C120.131 28.9575 120.751 29.1367 121.11 29.269C121.477 29.4045 121.726 29.5487 121.84 29.6197C122.052 29.7512 122.08 29.8049 121.895 29.6308L113.679 38.377ZM119.325 40.9575C122.996 40.9575 125.163 38.3757 126.065 37.0731C127.127 35.5396 127.936 33.6371 128.599 31.7065L117.249 27.8111C116.999 28.5377 116.774 29.1022 116.578 29.5278C116.377 29.964 116.244 30.1779 116.199 30.2426C116.139 30.3297 116.292 30.0745 116.727 29.7614C117.212 29.413 118.109 28.9575 119.325 28.9575V40.9575ZM128.716 31.3242C129.757 27.4738 130.927 22.9056 132.226 17.6267L120.574 14.7591C119.289 19.9801 118.142 24.4559 117.132 28.1933L128.716 31.3242ZM126.4 22.1929H126.492V10.1929H126.4V22.1929ZM172.143 9.979L172.571 3.99434L172.357 3.979H172.143V9.979ZM183.709 10.8711L182.36 16.7174L183.026 16.8711H183.709V10.8711ZM184.478 22.7451L178.487 23.0711L178.785 28.5563L184.276 28.7417L184.478 22.7451ZM196.567 23.2681H202.567V19.5599L199.251 17.9015L196.567 23.2681ZM196.567 23.3604L202.54 23.9292L202.567 23.6454V23.3604H196.567ZM195.583 31.7583V25.7583H195.199L194.818 25.8073L195.583 31.7583ZM185.001 32.8042L184.456 26.829L177.808 27.4355L179.117 33.9809L185.001 32.8042ZM186.324 56.0908L189.007 61.4574L192.527 59.6975L192.315 55.7678L186.324 56.0908ZM186.139 56.1831L185.518 62.1509L187.258 62.332L188.822 61.5497L186.139 56.1831ZM164.791 53.9067L159.424 56.59L160.658 59.0583L163.335 59.7276L164.791 53.9067ZM164.698 53.7222L158.78 52.7358L158.459 54.6603L159.332 56.4054L164.698 53.7222ZM167.959 34.4961L173.474 36.8596L177.058 28.4961H167.959V34.4961ZM167.867 34.4961V28.4961H167.587L167.309 28.522L167.867 34.4961ZM159.623 35.2651V41.2651H159.902L160.18 41.2392L159.623 35.2651ZM158.669 21.9761V15.9761H152.312L152.679 22.3227L158.669 21.9761ZM169.958 22.3145L169.757 28.3111L175.048 28.4885L175.883 23.2618L169.958 22.3145ZM172.05 9.979V3.979H168.963L167.168 6.49157L172.05 9.979ZM171.714 15.9637C175.433 16.2301 178.245 16.4368 180.156 16.5842C181.114 16.658 181.83 16.7159 182.316 16.7581C182.561 16.7795 182.725 16.795 182.823 16.8051C183.124 16.8362 182.774 16.8131 182.36 16.7174L185.058 5.02475C184.71 4.94432 184.398 4.90785 184.374 4.90478C184.264 4.89071 184.153 4.87865 184.059 4.86886C183.865 4.84884 183.626 4.82681 183.357 4.80334C182.812 4.75589 182.049 4.6945 181.079 4.6197C179.134 4.46972 176.296 4.26114 172.571 3.99434L171.714 15.9637ZM183.709 16.8711C182.123 16.8711 180.913 16.2576 180.174 15.7187C179.472 15.2061 179.038 14.6544 178.814 14.3386C178.379 13.7227 178.167 13.1698 178.1 12.9926C177.939 12.5631 177.868 12.2155 177.854 12.1497C177.828 12.0236 177.813 11.9292 177.807 11.892C177.8 11.8476 177.797 11.8188 177.796 11.8122C177.795 11.8096 177.805 11.8955 177.825 12.1243C177.862 12.5552 177.912 13.2471 177.975 14.2274C178.101 16.1743 178.272 19.1176 178.487 23.0711L190.469 22.4192C190.254 18.4566 190.08 15.4629 189.95 13.4518C189.886 12.4531 189.829 11.6607 189.781 11.1021C189.759 10.8362 189.732 10.551 189.7 10.301C189.687 10.2012 189.656 9.96036 189.599 9.68525C189.578 9.58857 189.501 9.21776 189.334 8.77276C189.265 8.5879 189.05 8.0291 188.612 7.40941C188.394 7.10195 186.826 4.87109 183.709 4.87109V16.8711ZM184.276 28.7417C188.219 28.8748 191.177 28.9843 193.163 29.0702C194.161 29.1134 194.884 29.1493 195.353 29.1781C195.596 29.1929 195.723 29.2029 195.769 29.2072C195.8 29.2101 195.74 29.2054 195.633 29.1899C195.584 29.1828 195.449 29.1627 195.271 29.1243C195.252 29.12 194.611 28.998 193.884 28.6346L199.251 17.9015C198.514 17.533 197.855 17.4057 197.81 17.3959C197.607 17.352 197.439 17.3263 197.35 17.3133C197.162 17.2861 196.99 17.269 196.88 17.2587C196.644 17.2368 196.368 17.2177 196.086 17.2004C195.507 17.165 194.698 17.1254 193.681 17.0814C191.637 16.993 188.633 16.882 184.681 16.7485L184.276 28.7417ZM190.567 23.2681V23.3604H202.567V23.2681H190.567ZM190.594 22.7915C190.329 25.5811 190.118 27.6277 189.962 28.9603C189.882 29.6405 189.825 30.0609 189.79 30.2787C189.768 30.4134 189.775 30.3424 189.817 30.1769C189.827 30.1344 189.907 29.8003 190.086 29.3791C190.162 29.2014 190.396 28.663 190.856 28.0701C191.094 27.7636 191.538 27.2525 192.23 26.7849C192.953 26.2963 194.101 25.7583 195.583 25.7583V37.7583C198.499 37.7583 200.058 35.7859 200.334 35.4301C200.803 34.8263 201.046 34.2715 201.131 34.0719C201.328 33.607 201.428 33.2073 201.461 33.0773C201.546 32.7368 201.603 32.4034 201.637 32.1881C201.715 31.7061 201.796 31.0768 201.881 30.3573C202.053 28.8906 202.273 26.7383 202.54 23.9292L190.594 22.7915ZM194.818 25.8073C193.516 25.9746 190.114 26.3127 184.456 26.829L185.546 38.7794C191.126 38.2703 194.778 37.9111 196.348 37.7093L194.818 25.8073ZM179.117 33.9809C179.042 33.6042 179.023 33.276 179.04 33.4746C179.043 33.5058 179.048 33.5763 179.057 33.7C179.075 33.9421 179.099 34.3071 179.13 34.8055C179.192 35.7976 179.277 37.2592 179.387 39.1968C179.607 43.069 179.922 48.8068 180.332 56.4138L192.315 55.7678C191.905 48.158 191.589 42.4063 191.368 38.5163C191.258 36.5728 191.171 35.0852 191.107 34.0598C191.075 33.5494 191.048 33.1387 191.026 32.838C191.016 32.6903 191.005 32.5476 190.994 32.4239C190.989 32.3638 190.981 32.2837 190.972 32.1977C190.97 32.1793 190.944 31.9243 190.884 31.6275L179.117 33.9809ZM183.64 50.7243L183.456 50.8165L188.822 61.5497L189.007 61.4574L183.64 50.7243ZM186.76 50.2154C179.768 49.4875 174.499 48.9344 170.948 48.5558C169.172 48.3664 167.833 48.2214 166.928 48.1205C166.473 48.0698 166.14 48.0317 165.92 48.0053C165.808 47.9918 165.745 47.9837 165.717 47.98C165.503 47.9513 165.859 47.9891 166.246 48.0859L163.335 59.7276C163.532 59.7769 163.691 59.8056 163.74 59.8144C163.811 59.8274 163.872 59.8371 163.911 59.8432C163.99 59.8555 164.064 59.8657 164.117 59.8728C164.228 59.8878 164.356 59.9037 164.489 59.9197C164.761 59.9523 165.134 59.9949 165.599 60.0467C166.534 60.1509 167.895 60.2982 169.676 60.4882C173.242 60.8684 178.524 61.4227 185.518 62.1509L186.76 50.2154ZM170.157 51.2235L170.065 51.0389L159.332 56.4054L159.424 56.59L170.157 51.2235ZM170.617 54.7086C171.673 48.373 172.471 43.6092 173.013 40.4136C173.284 38.8141 173.49 37.6166 173.63 36.8143C173.701 36.4104 173.753 36.123 173.787 35.9403C173.795 35.8959 173.802 35.8616 173.806 35.8359C173.812 35.8091 173.814 35.7984 173.814 35.7997C173.813 35.8007 173.812 35.809 173.809 35.8227C173.806 35.835 173.8 35.8622 173.791 35.899C173.784 35.9291 173.766 36.0044 173.74 36.1023C173.735 36.1174 173.647 36.4561 173.474 36.8596L162.444 32.1326C162.269 32.5406 162.178 32.8868 162.171 32.9125C162.141 33.021 162.12 33.11 162.109 33.1568C162.086 33.2549 162.068 33.3418 162.057 33.3932C162.035 33.5044 162.011 33.6286 161.989 33.747C161.943 33.9916 161.883 34.3275 161.811 34.7426C161.664 35.5784 161.454 36.8021 161.182 38.407C160.637 41.6201 159.836 46.3975 158.78 52.7358L170.617 54.7086ZM167.959 28.4961H167.867V40.4961H167.959V28.4961ZM167.309 28.522L159.065 29.2911L160.18 41.2392L168.424 40.4702L167.309 28.522ZM159.623 29.2651C162 29.2651 163.475 30.6025 164.004 31.1691C164.58 31.7866 164.885 32.3796 165.002 32.6189C165.256 33.1391 165.37 33.573 165.395 33.6698C165.439 33.8357 165.465 33.9623 165.475 34.0163C165.487 34.0793 165.494 34.1227 165.496 34.1379C165.501 34.1671 165.489 34.0921 165.464 33.8403C165.418 33.3719 165.355 32.6085 165.276 31.5134C165.121 29.3415 164.915 26.053 164.659 21.6294L152.679 22.3227C152.936 26.7586 153.145 30.1146 153.307 32.3723C153.388 33.4921 153.46 34.3899 153.523 35.0289C153.553 35.3307 153.591 35.671 153.638 35.9771C153.657 36.0982 153.705 36.405 153.799 36.7567C153.834 36.8881 153.957 37.3479 154.219 37.8854C154.34 38.1334 154.649 38.7328 155.229 39.3547C155.762 39.9256 157.241 41.2651 159.623 41.2651V29.2651ZM158.669 27.9761C159.338 27.9761 162.951 28.0828 169.757 28.3111L170.16 16.3178C163.513 16.0949 159.6 15.9761 158.669 15.9761V27.9761ZM175.883 23.2618C176.529 19.2263 177.022 16.2009 177.366 14.1737C177.539 13.1551 177.669 12.4173 177.759 11.939C177.805 11.6923 177.832 11.5625 177.842 11.5148C177.85 11.4823 177.837 11.5438 177.807 11.6517C177.794 11.7002 177.755 11.8394 177.69 12.0203C177.658 12.1114 177.599 12.2699 177.511 12.4631C177.443 12.6137 177.258 13.011 176.933 13.4664L167.168 6.49157C166.63 7.24412 166.395 7.96731 166.388 7.98783C166.315 8.19329 166.266 8.36463 166.241 8.45314C166.189 8.64098 166.15 8.81343 166.126 8.92287C166.073 9.15907 166.019 9.43718 165.965 9.72241C165.855 10.308 165.711 11.1301 165.535 12.1674C165.181 14.252 164.68 17.3225 164.034 21.3671L175.883 23.2618ZM172.05 15.979H172.143V3.979H172.05V15.979ZM234.035 25.3291L238.871 21.777L238.687 21.527L238.479 21.2972L234.035 25.3291ZM231.267 48.9541L234.88 53.744L235.035 53.6271L235.182 53.5004L231.267 48.9541ZM205.396 46.2778L200.56 49.8299L200.744 50.08L200.953 50.3098L205.396 46.2778ZM208.134 22.6528L204.534 17.8528L204.366 17.9786L204.208 18.1158L208.134 22.6528ZM216.501 42.3096L213.464 47.4845L213.813 47.6891L214.186 47.8451L216.501 42.3096ZM225.668 39.541L230.728 42.7652L230.844 42.5825L230.947 42.3919L225.668 39.541ZM222.746 30.7739L225.732 25.5697L225.447 25.4061L225.145 25.2747L222.746 30.7739ZM213.579 33.5425L208.526 30.3069L208.394 30.5135L208.279 30.7302L213.579 33.5425ZM219.177 24.6846H220.223V12.6846H219.177V24.6846ZM220.223 24.6846C223.454 24.6846 226.518 25.9738 229.592 29.361L238.479 21.2972C233.513 15.825 227.369 12.6846 220.223 12.6846V24.6846ZM229.2 28.8812C231.052 31.4031 231.696 33.5402 231.696 35.3882H243.696C243.696 30.4686 241.899 25.8997 238.871 21.777L229.2 28.8812ZM231.696 35.3882V36.2188H243.696V35.3882H231.696ZM231.696 36.2188C231.696 38.9537 230.575 41.6314 227.351 44.4078L235.182 53.5004C240.531 48.894 243.696 43.0814 243.696 36.2188H231.696ZM227.653 44.1642C225.036 46.1388 222.597 46.9224 220.223 46.9224V58.9224C225.561 58.9224 230.484 57.0604 234.88 53.744L227.653 44.1642ZM220.223 46.9224H219.177V58.9224H220.223V46.9224ZM219.177 46.9224C215.974 46.9224 212.918 45.6392 209.839 42.2459L200.953 50.3098C205.913 55.7758 212.045 58.9224 219.177 58.9224V46.9224ZM210.232 42.7258C208.379 40.2038 207.735 38.0667 207.735 36.2188H195.735C195.735 41.1384 197.532 45.7073 200.56 49.8299L210.232 42.7258ZM207.735 36.2188V35.3882H195.735V36.2188H207.735ZM207.735 35.3882C207.735 32.6421 208.856 29.9622 212.06 27.1898L204.208 18.1158C198.88 22.7262 195.735 28.5367 195.735 35.3882H207.735ZM211.734 27.4528C214.385 25.4647 216.829 24.6846 219.177 24.6846V12.6846C213.855 12.6846 208.938 14.5499 204.534 17.8528L211.734 27.4528ZM206.779 36.6187C206.779 41.6018 209.641 45.2412 213.464 47.4845L219.537 37.1347C219.217 36.9463 219.012 36.788 218.888 36.6769C218.827 36.6221 218.788 36.58 218.764 36.5524C218.74 36.5251 218.731 36.5109 218.731 36.5106C218.731 36.5105 218.737 36.5203 218.746 36.5392C218.755 36.5582 218.763 36.58 218.769 36.6024C218.784 36.6527 218.779 36.6662 218.779 36.6187H206.779ZM214.186 47.8451C215.876 48.5515 217.723 49.0171 219.669 49.0171V37.0171C219.647 37.0171 219.382 37.011 218.816 36.7741L214.186 47.8451ZM219.669 49.0171C224.451 49.0171 228.267 46.6273 230.728 42.7652L220.608 36.3169C220.289 36.8174 220.077 36.9425 220.053 36.9567C220.033 36.9681 220.012 36.9778 219.974 36.9876C219.933 36.9982 219.838 37.0171 219.669 37.0171V49.0171ZM230.947 42.3919C231.909 40.6117 232.499 38.6146 232.499 36.4648H220.499C220.499 36.4307 220.504 36.4178 220.498 36.4389C220.492 36.4634 220.466 36.5461 220.389 36.6901L230.947 42.3919ZM232.499 36.4648C232.499 31.4476 229.609 27.7946 225.732 25.5697L219.76 35.9781C220.41 36.3514 220.562 36.5933 220.551 36.5765C220.545 36.5662 220.523 36.528 220.508 36.4748C220.492 36.4234 220.499 36.4117 220.499 36.4648H232.499ZM225.145 25.2747C223.444 24.5322 221.566 24.0356 219.577 24.0356V36.0356C219.557 36.0356 219.792 36.0312 220.346 36.2732L225.145 25.2747ZM219.577 24.0356C214.777 24.0356 210.983 26.4704 208.526 30.3069L218.631 36.7781C218.969 36.2508 219.196 36.1116 219.229 36.0921C219.252 36.079 219.271 36.0704 219.303 36.0622C219.337 36.0533 219.422 36.0356 219.577 36.0356V24.0356ZM208.279 30.7302C207.327 32.5235 206.779 34.5079 206.779 36.6187H218.779C218.779 36.6118 218.779 36.6011 218.786 36.575C218.793 36.5466 218.815 36.4745 218.879 36.3548L208.279 30.7302ZM284.423 1.9502L282.646 7.68101L282.728 7.70636L282.81 7.72937L284.423 1.9502ZM289.037 4.62646L284.828 8.90238L285.285 9.35226L285.827 9.69538L289.037 4.62646ZM291.252 6.99512L296.763 4.62318L296.501 4.01358L296.112 3.47606L291.252 6.99512ZM292.298 11.2402H286.298V17.2402H292.298V11.2402ZM287.561 21.8223L283.189 17.7125L276.696 24.619L285.717 27.532L287.561 21.8223ZM291.467 23.7295L287.225 27.9721L287.57 28.3176L287.967 28.6026L291.467 23.7295ZM295.159 26.9287L299.877 23.2218L299.728 23.0324L299.564 22.8556L295.159 26.9287ZM297.281 30.4048L302.852 28.1764L302.816 28.085L302.776 27.9948L297.281 30.4048ZM298.573 36.8647L304.53 37.5843L304.573 37.2258V36.8647H298.573ZM297.343 42.6172L292.15 39.611L291.894 40.0536L291.716 40.5333L297.343 42.6172ZM294.236 48.3696L289.487 44.7027L289.407 44.8057L289.332 44.912L294.236 48.3696ZM290.329 52.2148L287.049 47.1906L286.734 47.3963L286.447 47.6398L290.329 52.2148ZM283.162 54.7681L284.617 60.5889L284.685 60.5719L284.753 60.5533L283.162 54.7681ZM270.642 55.9062V49.9062H264.642V55.9062H270.642ZM262.92 56.1831V62.1831H263.004L263.088 62.1808L262.92 56.1831ZM261.628 47.1699L267.584 46.4382L267.547 46.1407L267.481 45.8484L261.628 47.1699ZM255.814 4.56494L254.236 -1.22364L249.168 0.158422L249.868 5.36425L255.814 4.56494ZM271.226 1.08887L270.474 -4.86383L270.385 -4.85257L270.296 -4.83865L271.226 1.08887ZM270.949 9.979L269.225 4.23205L264.861 5.54114L264.95 10.0961L270.949 9.979ZM271.072 20.8379H265.072V26.8379H271.072V20.8379ZM271.165 20.8379V26.8379H271.516L271.866 26.7968L271.165 20.8379ZM276.394 20.5303V26.5303H277.117L277.819 26.3587L276.394 20.5303ZM279.378 18.5L283.738 22.6221L284.005 22.3396L284.233 22.0251L279.378 18.5ZM281.008 13.855H287.008V13.5152L286.97 13.1775L281.008 13.855ZM279.747 11.394L283.99 7.1514L283.77 6.93138L283.528 6.73529L279.747 11.394ZM273.349 9.67139V3.67139H273.041L272.734 3.70293L273.349 9.67139ZM271.288 31.543L270.052 25.6717L265.222 26.6884L265.288 31.6232L271.288 31.543ZM271.441 44.832H265.441V49.5513L270.028 50.6631L271.441 44.832ZM276.486 45.2627L276.212 51.2564L276.349 51.2627H276.486V45.2627ZM282.516 44.4629L284.025 50.2698L284.255 50.2103L284.478 50.1328L282.516 44.4629ZM286.638 41.8481L290.954 46.0157L291.244 45.7151L291.49 45.3772L286.638 41.8481ZM288.268 38.4951L294.228 39.1881L294.268 38.8428V38.4951H288.268ZM284.577 32.5581L280.819 37.2358L281.335 37.6504L281.929 37.9425L284.577 32.5581ZM277.532 6.71973H277.901V-5.28027H277.532V6.71973ZM277.901 6.71973C278.743 6.71973 280.263 6.9422 282.646 7.68101L286.2 -3.78062C283.292 -4.68243 280.464 -5.28027 277.901 -5.28027V6.71973ZM282.81 7.72937C283.589 7.94675 284.235 8.3189 284.828 8.90238L293.246 0.35055C291.214 -1.64996 288.784 -3.06199 286.036 -3.82898L282.81 7.72937ZM285.827 9.69538C285.672 9.59764 285.59 9.52616 285.58 9.51762C285.568 9.50684 285.598 9.53182 285.67 9.60883C285.82 9.76926 286.06 10.0557 286.392 10.5142L296.112 3.47606C295.164 2.1679 293.875 0.588633 292.247 -0.44245L285.827 9.69538ZM285.741 9.36705C286.251 10.5525 286.298 11.13 286.298 11.2402H298.298C298.298 8.93056 297.648 6.67802 296.763 4.62318L285.741 9.36705ZM292.298 17.2402C289.136 17.2402 287.55 14.9969 287.109 14.2126C286.642 13.3821 286.505 12.6549 286.47 12.469C286.416 12.1839 286.401 11.9713 286.396 11.8914C286.39 11.7954 286.39 11.7373 286.39 11.7324H298.39C298.39 11.48 298.386 10.9042 298.264 10.2575C298.214 9.9896 298.058 9.20086 297.568 8.32943C297.103 7.5041 295.49 5.24023 292.298 5.24023V17.2402ZM286.39 11.7324C286.39 12.9642 285.806 14.9294 283.189 17.7125L291.932 25.932C295.755 21.8655 298.39 17.1042 298.39 11.7324H286.39ZM285.717 27.532C286.535 27.7962 287.068 28.0144 287.382 28.1677C287.533 28.2418 287.588 28.2785 287.574 28.2694C287.566 28.2643 287.425 28.1721 287.225 27.9721L295.71 19.4869C293.96 17.7369 291.391 16.7542 289.404 16.1126L285.717 27.532ZM287.967 28.6026C289.161 29.4605 290.072 30.2657 290.753 31.0018L299.564 22.8556C298.235 21.4179 296.686 20.0903 294.968 18.8564L287.967 28.6026ZM290.441 30.6356C291.075 31.4422 291.504 32.1701 291.787 32.8148L302.776 27.9948C302.033 26.3016 301.048 24.7121 299.877 23.2218L290.441 30.6356ZM291.71 32.6331C292.31 34.1328 292.573 35.5319 292.573 36.8647H304.573C304.573 33.891 303.975 30.9835 302.852 28.1764L291.71 32.6331ZM292.617 36.1451C292.443 37.5819 292.274 38.6278 292.121 39.3396C292.046 39.6938 291.988 39.9001 291.958 39.9938C291.916 40.1246 291.96 39.9387 292.15 39.611L302.535 45.6234C303.27 44.3544 303.637 42.874 303.856 41.8496C304.114 40.644 304.334 39.2033 304.53 37.5843L292.617 36.1451ZM291.716 40.5333C291.075 42.2648 290.315 43.6302 289.487 44.7027L298.985 52.0366C300.659 49.8689 301.97 47.3993 302.969 44.7011L291.716 40.5333ZM289.332 44.912C288.594 45.9596 287.824 46.6848 287.049 47.1906L293.609 57.2391C295.787 55.8171 297.622 53.9789 299.139 51.8273L289.332 44.912ZM286.447 47.6398C286.906 47.2501 287.222 47.1399 286.971 47.2566C286.817 47.3281 286.516 47.4538 286.016 47.6317C285.022 47.9858 283.56 48.4357 281.571 48.9828L284.753 60.5533C286.865 59.9725 288.648 59.4329 290.043 58.9359C290.738 58.6883 291.417 58.423 292.03 58.1382C292.545 57.8987 293.413 57.4667 294.211 56.7899L286.447 47.6398ZM281.706 48.9472C279.364 49.5328 275.752 49.9062 270.642 49.9062V61.9062C276.154 61.9062 280.889 61.5209 284.617 60.5889L281.706 48.9472ZM264.642 55.9062C264.642 53.8119 265.69 52.4 266.316 51.7482C266.935 51.1056 267.55 50.7549 267.83 50.6065C268.413 50.2981 268.911 50.1614 269.044 50.1249C269.401 50.0266 269.686 49.9861 269.736 49.9787C269.839 49.9636 269.916 49.9552 269.948 49.9519C269.986 49.9479 270.012 49.9457 270.021 49.9449C270.039 49.9434 269.995 49.9471 269.849 49.9547C269.576 49.9688 269.133 49.9873 268.496 50.0101C267.234 50.0553 265.323 50.1138 262.753 50.1854L263.088 62.1808C265.665 62.1089 267.615 62.0494 268.926 62.0024C269.577 61.979 270.098 61.9578 270.469 61.9386C270.644 61.9295 270.842 61.9181 271.021 61.9031C271.09 61.8974 271.273 61.8818 271.486 61.8504C271.557 61.84 271.857 61.7967 272.224 61.6956C272.362 61.6578 272.864 61.5197 273.449 61.2099C273.73 61.0609 274.347 60.7095 274.966 60.0662C275.593 59.4137 276.642 58.0013 276.642 55.9062H264.642ZM262.92 50.1831C264.503 50.1831 265.691 50.7953 266.381 51.2834C267.05 51.7571 267.473 52.2638 267.69 52.5508C268.117 53.1135 268.337 53.6183 268.406 53.7776C268.572 54.1637 268.649 54.4668 268.658 54.4988C268.695 54.6377 268.699 54.6829 268.671 54.5323C268.624 54.2785 268.549 53.8114 268.444 53.0784C268.238 51.6381 267.952 49.4336 267.584 46.4382L255.673 47.9016C256.043 50.915 256.342 53.2171 256.566 54.7812C256.676 55.5504 256.778 56.21 256.87 56.7073C256.911 56.9322 256.975 57.2591 257.062 57.5858C257.095 57.7116 257.196 58.0852 257.382 58.5182C257.46 58.701 257.69 59.2234 258.126 59.7978C258.303 60.0325 259.877 62.1831 262.92 62.1831V50.1831ZM267.481 45.8484C267.517 46.0082 267.418 45.3978 267.126 43.3159C266.868 41.4726 266.496 38.779 266.012 35.2306C265.044 28.1359 263.627 17.6484 261.761 3.76563L249.868 5.36425C251.734 19.249 253.153 29.7462 254.122 36.8531C254.607 40.4056 254.981 43.117 255.242 44.9831C255.471 46.6106 255.668 48.0138 255.776 48.4915L267.481 45.8484ZM257.393 10.3535C263.363 8.72536 268.269 7.62611 272.156 7.01638L270.296 -4.83865C265.816 -4.13588 260.447 -2.91775 254.236 -1.22364L257.393 10.3535ZM271.978 7.04157C273.643 6.8312 275.492 6.71973 277.532 6.71973V-5.28027C275.061 -5.28027 272.705 -5.14565 270.474 -4.86383L271.978 7.04157ZM264.95 10.0961C265.032 14.2748 265.072 17.8533 265.072 20.8379H277.072C277.072 17.7521 277.031 14.0914 276.948 9.86195L264.95 10.0961ZM271.072 26.8379H271.165V14.8379H271.072V26.8379ZM271.866 26.7968C273.598 26.593 274.542 26.5303 274.917 26.5303V14.5303C273.775 14.5303 272.218 14.6726 270.464 14.879L271.866 26.7968ZM274.917 26.5303H276.394V14.5303H274.917V26.5303ZM277.819 26.3587C280.369 25.7354 282.332 24.1087 283.738 22.6221L275.018 14.3779C274.864 14.5406 274.738 14.6609 274.639 14.7473C274.54 14.834 274.479 14.8779 274.457 14.8929C274.435 14.908 274.464 14.8856 274.545 14.8476C274.627 14.8091 274.769 14.7508 274.969 14.7019L277.819 26.3587ZM284.233 22.0251C285.943 19.6695 287.008 16.912 287.008 13.855H275.008C275.008 13.9972 274.986 14.3364 274.523 14.9749L284.233 22.0251ZM286.97 13.1775C286.692 10.7289 285.537 8.69863 283.99 7.1514L275.504 15.6367C275.489 15.6217 275.386 15.5138 275.276 15.2995C275.162 15.0762 275.078 14.8104 275.047 14.5324L286.97 13.1775ZM283.528 6.73529C280.587 4.34867 276.843 3.67139 273.349 3.67139V15.6714C274.391 15.6714 275.091 15.7785 275.526 15.8957C275.95 16.0097 276.034 16.1082 275.966 16.0528L283.528 6.73529ZM272.734 3.70293C272.018 3.77668 271.412 3.8441 270.94 3.90467C270.704 3.93494 269.902 4.02902 269.225 4.23205L272.673 15.726C272.446 15.7941 272.279 15.8278 272.247 15.8342C272.193 15.8452 272.166 15.8492 272.181 15.8468C272.212 15.8418 272.3 15.8285 272.466 15.8072C272.793 15.7653 273.285 15.7096 273.963 15.6398L272.734 3.70293ZM265.288 31.6232C265.391 39.3198 265.441 43.6941 265.441 44.832H277.441C277.441 43.591 277.389 39.106 277.287 31.4628L265.288 31.6232ZM270.028 50.6631C271.39 50.9934 273.729 51.1427 276.212 51.2564L276.761 39.269C275.456 39.2092 274.451 39.1468 273.721 39.0845C273.355 39.0533 273.092 39.0249 272.913 39.0016C272.706 38.9746 272.718 38.9678 272.855 39.0009L270.028 50.6631ZM276.486 51.2627C279.002 51.2627 281.519 50.9215 284.025 50.2698L281.006 38.656C279.411 39.0707 277.908 39.2627 276.486 39.2627V51.2627ZM284.478 50.1328C286.948 49.278 289.134 47.9006 290.954 46.0157L282.321 37.6806C281.844 38.1746 281.283 38.5404 280.553 38.793L284.478 50.1328ZM291.49 45.3772C292.631 43.808 293.941 41.6528 294.228 39.1881L282.308 37.8021C282.335 37.568 282.38 37.4148 282.399 37.3561C282.418 37.2964 282.422 37.2995 282.388 37.371C282.313 37.5254 282.136 37.8366 281.785 38.3191L291.49 45.3772ZM294.268 38.4951C294.268 36.2047 293.746 33.8812 292.441 31.7817C291.135 29.6815 289.281 28.1851 287.224 27.1737L281.929 37.9425C282.141 38.0467 282.24 38.1246 282.269 38.1501C282.294 38.1717 282.276 38.1607 282.25 38.1179C282.223 38.0752 282.222 38.0555 282.231 38.0897C282.241 38.1299 282.268 38.2555 282.268 38.4951H294.268ZM288.334 27.8804C286.559 26.4542 284.403 25.8443 282.68 25.5269C280.825 25.1852 278.695 25.0508 276.394 25.0508V37.0508C278.297 37.0508 279.633 37.1676 280.506 37.3283C280.934 37.4071 281.159 37.4803 281.236 37.5095C281.324 37.5427 281.128 37.4842 280.819 37.2358L288.334 27.8804ZM276.394 25.0508C274.197 25.0508 272.075 25.2458 270.052 25.6717L272.524 37.4143C273.618 37.1839 274.9 37.0508 276.394 37.0508V25.0508ZM334.78 16.2544V10.2544H334.047L333.335 10.4308L334.78 16.2544ZM336.502 34.6807L330.523 35.1798L330.804 38.5395L333.819 40.0472L336.502 34.6807ZM337.979 50.8613H343.979V50.599L343.956 50.3376L337.979 50.8613ZM329.273 51.2612L323.413 52.5477L324.474 57.3818L329.422 57.2594L329.273 51.2612ZM328.72 48.3696H334.72V42.3696H328.72V48.3696ZM328.627 48.3696V42.3696H326.224L324.486 44.0286L328.627 48.3696ZM322.813 52.2764L324.436 58.0528L324.454 58.0478L324.471 58.0428L322.813 52.2764ZM311.77 51.8765L309.256 57.3242L309.703 57.5305L310.177 57.6612L311.77 51.8765ZM306.694 48.3696L302.21 52.3558L302.249 52.3993L302.288 52.4421L306.694 48.3696ZM303.28 42.9248L309.143 41.6502L309.079 41.3543L308.985 41.0664L303.28 42.9248ZM302.572 23.8833L301.14 18.0568L297.088 19.053L296.612 23.1982L302.572 23.8833ZM313.708 21.1455L319.279 18.9172L317.341 14.0735L312.276 15.319L313.708 21.1455ZM313.77 21.2993L319.71 22.1425L319.935 20.5574L319.34 19.071L313.77 21.2993ZM314.262 36.4033L308.489 38.0403L308.514 38.1289L308.542 38.2168L314.262 36.4033ZM324.505 38.0337L329.92 40.619L329.985 40.4818L330.044 40.3414L324.505 38.0337ZM325.305 34.1577L331.261 34.8856L331.305 34.523V34.1577H325.305ZM323.736 22.7144L329.628 21.5804L329.6 21.4358L329.565 21.2926L323.736 22.7144ZM323.121 19.146L321.677 13.3224L317.121 14.4523V19.146H323.121ZM334.78 22.2544C331.632 22.2544 330.062 19.9689 329.904 19.7471C329.485 19.1608 329.275 18.6366 329.21 18.4718C329.052 18.0688 328.978 17.7456 328.966 17.6919C328.922 17.5072 328.907 17.3937 328.917 17.4532C328.928 17.5243 328.953 17.7168 328.995 18.0828C329.075 18.7894 329.186 19.8928 329.329 21.4195C329.613 24.4597 330.011 29.0421 330.523 35.1798L342.482 34.1816C341.969 28.0351 341.567 23.4043 341.277 20.3025C341.132 18.7581 341.012 17.5582 340.918 16.7292C340.873 16.3275 340.826 15.9442 340.778 15.6315C340.757 15.499 340.716 15.2415 340.651 14.9608C340.627 14.8592 340.543 14.5 340.375 14.073C340.305 13.8961 340.091 13.363 339.668 12.7707C339.505 12.5429 337.931 10.2544 334.78 10.2544V22.2544ZM333.819 40.0472C332.539 39.4071 331.849 38.4892 331.617 38.1638C331.32 37.7468 331.14 37.3806 331.053 37.1901C330.875 36.8028 330.779 36.4832 330.746 36.3701C330.668 36.1046 330.628 35.894 330.618 35.8424C330.589 35.6969 330.575 35.5895 330.574 35.5837C330.568 35.5428 330.569 35.5407 330.577 35.6126C330.591 35.7396 330.614 35.9597 330.647 36.2916C330.711 36.9462 330.804 37.9413 330.927 39.2865C331.172 41.9721 331.53 46.0033 332.002 51.385L343.956 50.3376C343.484 44.9527 343.125 40.9039 342.878 38.1959C342.754 36.8443 342.658 35.8143 342.589 35.1154C342.555 34.7705 342.525 34.4818 342.501 34.2678C342.49 34.1692 342.475 34.0387 342.457 33.9113C342.45 33.8621 342.43 33.722 342.398 33.5542C342.385 33.4915 342.343 33.2724 342.263 33.001C342.229 32.8849 342.133 32.5631 341.954 32.1741C341.866 31.9829 341.686 31.616 341.389 31.1985C341.156 30.8726 340.466 29.9544 339.186 29.3141L333.819 40.0472ZM331.979 50.8613C331.979 49.3007 332.574 48.0864 333.142 47.3135C333.676 46.5875 334.255 46.1446 334.59 45.9159C335.24 45.4728 335.821 45.27 336 45.2087C336.438 45.0585 336.781 45.0026 336.819 44.9959C336.983 44.9675 337.049 44.9662 336.907 44.9788C336.675 44.9993 336.234 45.0275 335.527 45.0599C334.142 45.1235 332.017 45.1915 329.125 45.2631L329.422 57.2594C332.333 57.1874 334.561 57.1169 336.078 57.0473C336.822 57.0131 337.469 56.9758 337.963 56.9323C338.183 56.9128 338.521 56.8798 338.867 56.82C338.996 56.7976 339.407 56.7261 339.89 56.5604C340.092 56.4912 340.69 56.2807 341.351 55.8299C341.741 55.5639 343.979 53.9943 343.979 50.8613H331.979ZM335.134 49.9748C334.954 49.1538 334.828 48.5528 334.751 48.1487C334.712 47.9435 334.693 47.8298 334.686 47.784C334.682 47.7611 334.687 47.7879 334.693 47.8487C334.697 47.8785 334.72 48.0832 334.72 48.3696H322.72C322.72 49.1909 322.913 50.1336 322.965 50.4055C323.072 50.9653 323.224 51.687 323.413 52.5477L335.134 49.9748ZM328.72 42.3696H328.627V54.3696H328.72V42.3696ZM324.486 44.0286C322.469 45.9524 321.386 46.4436 321.156 46.51L324.471 58.0428C327.522 57.1658 330.315 55.0525 332.769 52.7107L324.486 44.0286ZM321.191 46.4999C319.564 46.9569 318.723 47.0454 318.445 47.0454V59.0454C320.341 59.0454 322.412 58.6212 324.436 58.0528L321.191 46.4999ZM318.445 47.0454C317.633 47.0454 316.021 46.8238 313.363 46.0918L310.177 57.6612C313.179 58.4877 316.018 59.0454 318.445 59.0454V47.0454ZM314.284 46.4287C312.678 45.6873 311.693 44.9376 311.101 44.2972L302.288 52.4421C304.198 54.5087 306.596 56.0969 309.256 57.3242L314.284 46.4287ZM311.179 44.3834C310.338 43.4381 309.787 42.7008 309.447 42.1596C309.087 41.5851 309.097 41.4376 309.143 41.6502L297.417 44.1994C298.074 47.222 300.133 50.0196 302.21 52.3558L311.179 44.3834ZM308.985 41.0664C308.347 39.11 307.957 36.5579 307.957 33.2964H295.957C295.957 37.4587 296.448 41.3255 297.575 44.7832L308.985 41.0664ZM307.957 33.2964C307.957 30.8782 308.141 27.9779 308.533 24.5684L296.612 23.1982C296.183 26.9254 295.957 30.3005 295.957 33.2964H307.957ZM304.005 29.7098L315.141 26.972L312.276 15.319L301.14 18.0568L304.005 29.7098ZM308.137 23.3739L308.199 23.5277L319.34 19.071L319.279 18.9172L308.137 23.3739ZM307.829 20.4562C307.361 23.7532 307.093 26.6131 307.093 28.9282H319.093C319.093 27.4289 319.276 25.2028 319.71 22.1425L307.829 20.4562ZM307.093 28.9282C307.093 31.8457 307.599 34.8995 308.489 38.0403L320.034 34.7664C319.366 32.4111 319.093 30.4814 319.093 28.9282H307.093ZM308.542 38.2168C309.742 41.9997 312.599 47.4482 318.907 47.4482V35.4482C319.257 35.4482 319.653 35.5274 320.026 35.7026C320.383 35.8704 320.579 36.0599 320.637 36.1229C320.685 36.1758 320.617 36.1166 320.479 35.8495C320.342 35.5854 320.168 35.1789 319.981 34.5899L308.542 38.2168ZM318.907 47.4482C321.099 47.4482 323.36 46.9702 325.415 45.7171C327.487 44.4532 328.954 42.6414 329.92 40.619L319.091 35.4484C319.023 35.5898 318.986 35.6256 319.006 35.6026C319.015 35.5917 319.035 35.5711 319.065 35.5456C319.095 35.5199 319.129 35.4947 319.166 35.4721C319.203 35.4496 319.235 35.4343 319.258 35.4247C319.281 35.4153 319.289 35.4142 319.277 35.4171C319.253 35.4231 319.14 35.4482 318.907 35.4482V47.4482ZM330.044 40.3414C330.698 38.7715 331.033 36.7489 331.261 34.8856L319.349 33.4298C319.249 34.2501 319.15 34.8628 319.06 35.2984C318.961 35.7772 318.91 35.8633 318.967 35.726L330.044 40.3414ZM331.305 34.1577C331.305 31.3234 330.67 26.9936 329.628 21.5804L317.844 23.8483C318.894 29.3042 319.305 32.6033 319.305 34.1577H331.305ZM329.565 21.2926C329.38 20.5332 329.259 19.9574 329.188 19.5416C329.108 19.0781 329.121 18.9937 329.121 19.146H317.121C317.121 20.6464 317.502 22.4741 317.907 24.1361L329.565 21.2926ZM324.565 24.9696L336.224 22.078L333.335 10.4308L321.677 13.3224L324.565 24.9696ZM365.049 13.0859L365.631 7.11422L363.911 6.94664L362.366 7.71937L365.049 13.0859ZM378.369 14.501L384.361 14.8098L384.443 13.2314L383.736 11.8177L378.369 14.501ZM377.046 30.8354L371.123 29.8827L371.046 30.356V30.8354H377.046ZM375.508 36.9878L381.22 38.8266L381.244 38.7494L381.267 38.6717L375.508 36.9878ZM371.479 46.1548L366.561 42.7176L365.906 43.6538L365.642 44.7651L371.479 46.1548ZM367.818 51.6611L372.38 55.5584L372.54 55.3713L372.684 55.1718L367.818 51.6611ZM362.742 57.3521L358.622 52.99L358.613 52.9993L362.742 57.3521ZM354.344 64.3042L350.784 59.4746L350.735 59.511L350.686 59.5485L354.344 64.3042ZM348.438 68.4263V74.4263H350.284L351.811 73.3884L348.438 68.4263ZM348.253 68.4263L342.619 70.4885L344.06 74.4263H348.253V68.4263ZM344.808 59.0132L341.208 54.2132L337.641 56.8884L339.174 61.0755L344.808 59.0132ZM352.714 52.2764L356.854 56.6188L356.928 56.5486L356.999 56.4759L352.714 52.2764ZM358.159 45.7856L363.047 49.2647L363.567 48.534L363.851 47.683L358.159 45.7856ZM359.604 43.4785L364.63 46.7561L365.604 45.2621V43.4785H359.604ZM359.604 43.417H365.604V39.1719L361.601 37.759L359.604 43.417ZM352.406 39.9409L348.911 44.8178L348.999 44.8811L349.09 44.9411L352.406 39.9409ZM349.022 37.4185L344.968 41.8414L345.144 42.0027L345.332 42.1495L349.022 37.4185ZM343.854 31.9121L338.844 35.2131L338.886 35.2763L338.929 35.3385L343.854 31.9121ZM341.947 28.313L340.136 22.5928L335.071 24.1964L336.05 29.4187L341.947 28.313ZM352.345 25.0215L357.544 22.0268L355.135 17.8447L350.534 19.3013L352.345 25.0215ZM356.744 31.543L352.095 35.3366L352.377 35.6824L352.708 35.9826L356.744 31.543ZM362.865 36.1265L360.182 41.493L366.264 44.5341L368.524 38.1206L362.865 36.1265ZM364.619 29.1128L370.541 30.0758L370.547 30.0393L370.552 30.0028L364.619 29.1128ZM365.234 22.0684L371.225 22.39L371.238 22.1509L371.232 21.9116L365.234 22.0684ZM364.926 13.1475L362.243 7.7809L358.762 9.52153L358.932 13.41L364.926 13.1475ZM364.467 19.0577C368.883 19.4879 372.181 19.8191 374.375 20.0521C375.477 20.1692 376.27 20.2584 376.778 20.3211C377.041 20.3537 377.173 20.3725 377.215 20.3791C377.253 20.385 377.161 20.3719 377.014 20.3393C376.962 20.3279 376.732 20.2774 376.438 20.1785C376.307 20.1344 375.968 20.0169 375.563 19.803C375.359 19.6952 375.005 19.4942 374.611 19.1775C374.263 18.8981 373.54 18.2589 373.003 17.1843L383.736 11.8177C383.198 10.7418 382.474 10.1013 382.124 9.82044C381.728 9.50239 381.372 9.29999 381.165 9.19065C380.754 8.97381 380.408 8.85325 380.267 8.80584C379.954 8.70027 379.695 8.64232 379.606 8.62271C379.385 8.5738 379.185 8.54137 379.08 8.52483C378.837 8.48655 378.546 8.44831 378.249 8.41168C377.637 8.33597 376.76 8.23804 375.642 8.11927C373.395 7.88058 370.055 7.54527 365.631 7.11422L364.467 19.0577ZM372.377 14.1921C371.966 22.176 371.536 27.3139 371.123 29.8827L382.97 31.7882C383.5 28.4917 383.952 22.74 384.361 14.8098L372.377 14.1921ZM371.046 30.8354C371.046 30.3601 371.119 30.1082 371.06 30.413C371.024 30.597 370.956 30.9044 370.841 31.3644C370.613 32.2777 370.253 33.5804 369.749 35.3039L381.267 38.6717C381.789 36.8883 382.198 35.4123 382.483 34.2748C382.624 33.7093 382.748 33.1733 382.841 32.6961C382.91 32.3394 383.046 31.6082 383.046 30.8354H371.046ZM369.797 35.149C368.493 39.1977 367.369 41.5615 366.561 42.7176L376.396 49.592C378.254 46.9336 379.816 43.1861 381.22 38.8266L369.797 35.149ZM365.642 44.7651C365.727 44.4078 365.827 44.145 365.875 44.0257C365.929 43.889 365.975 43.7922 365.997 43.7485C366.037 43.6649 366.052 43.6456 366.01 43.7165C365.93 43.8543 365.767 44.1153 365.49 44.5326C364.943 45.355 364.106 46.5513 362.952 48.1504L372.684 55.1718C373.868 53.5307 374.81 52.1892 375.483 51.1761C375.816 50.6757 376.124 50.1946 376.374 49.7659C376.464 49.6115 377.05 48.6605 377.315 47.5445L365.642 44.7651ZM363.256 47.7639C360.532 50.9525 359.074 52.5634 358.622 52.99L366.862 61.7141C367.887 60.7462 369.813 58.5631 372.38 55.5584L363.256 47.7639ZM358.613 52.9993C356.424 55.0752 353.822 57.235 350.784 59.4746L357.904 69.1338C361.265 66.6566 364.261 64.1816 366.872 61.7048L358.613 52.9993ZM350.686 59.5485C350.056 60.0331 348.251 61.2985 345.065 63.4641L351.811 73.3884C354.9 71.2884 357.033 69.8057 358.003 69.0599L350.686 59.5485ZM348.438 62.4263H348.253V74.4263H348.438V62.4263ZM353.888 66.364L350.443 56.9509L339.174 61.0755L342.619 70.4885L353.888 66.364ZM348.408 63.8132C351.242 61.6878 354.057 59.2862 356.854 56.6188L348.573 47.9339C346.08 50.3115 343.624 52.4011 341.208 54.2132L348.408 63.8132ZM356.999 56.4759C359.222 54.2073 361.24 51.8036 363.047 49.2647L353.27 42.3066C351.837 44.3204 350.225 46.2439 348.429 48.0768L356.999 56.4759ZM363.851 47.683C363.791 47.8635 363.733 48.0061 363.697 48.0938C363.657 48.1868 363.623 48.2624 363.598 48.3147C363.55 48.4164 363.511 48.4912 363.493 48.5253C363.457 48.5935 363.436 48.6277 363.448 48.6066C363.47 48.5702 363.526 48.476 363.635 48.3027C363.847 47.9645 364.175 47.4543 364.63 46.7561L354.579 40.2009C354.111 40.9177 353.737 41.4996 353.467 41.9305C353.334 42.1416 353.205 42.3512 353.096 42.5379C353.043 42.6283 352.971 42.7538 352.897 42.8931C352.884 42.9174 352.648 43.3429 352.467 43.8883L363.851 47.683ZM365.604 43.4785V43.417H353.604V43.4785H365.604ZM361.601 37.759C359.177 36.9034 357.241 35.9479 355.723 34.9408L349.09 44.9411C351.591 46.6 354.454 47.9619 357.608 49.0749L361.601 37.759ZM355.901 35.064C354.727 34.222 353.665 33.43 352.713 32.6874L345.332 42.1495C346.431 43.0065 347.625 43.8961 348.911 44.8178L355.901 35.064ZM353.077 32.9955C350.699 30.8156 349.375 29.341 348.78 28.4857L338.929 35.3385C340.303 37.3133 342.424 39.5096 344.968 41.8414L353.077 32.9955ZM348.865 28.6112C348.346 27.824 348.013 27.2631 347.818 26.8955C347.722 26.7141 347.688 26.6336 347.689 26.6365C347.691 26.641 347.71 26.6877 347.737 26.7707C347.762 26.8504 347.806 27.0004 347.845 27.2073L336.05 29.4187C336.287 30.6831 336.843 31.813 337.215 32.5144C337.656 33.3465 338.214 34.257 338.844 35.2131L348.865 28.6112ZM343.758 34.0332L354.156 30.7417L350.534 19.3013L340.136 22.5928L343.758 34.0332ZM347.146 28.0162C348.741 30.7858 350.386 33.2425 352.095 35.3366L361.392 27.7494C360.189 26.2751 358.902 24.3842 357.544 22.0268L347.146 28.0162ZM352.708 35.9826C355.307 38.3453 357.834 40.3191 360.182 41.493L365.549 30.7599C364.697 30.3342 363.144 29.2523 360.78 27.1033L352.708 35.9826ZM368.524 38.1206C369.414 35.5951 370.08 32.9082 370.541 30.0758L358.696 28.1498C358.337 30.3623 357.834 32.3512 357.206 34.1324L368.524 38.1206ZM370.552 30.0028C370.841 28.0784 371.058 25.506 371.225 22.39L359.243 21.7467C359.082 24.742 358.889 26.866 358.685 28.2228L370.552 30.0028ZM371.232 21.9116C371.149 18.7426 371.045 15.7335 370.921 12.8849L358.932 13.41C359.053 16.1806 359.155 19.1187 359.236 22.2252L371.232 21.9116ZM367.61 18.514L367.733 18.4525L362.366 7.71937L362.243 7.7809L367.61 18.514ZM408.423 9.51758L413.454 6.24765L413.285 5.98824L413.091 5.74756L408.423 9.51758ZM410.884 17.2388H416.884V15.4221L415.877 13.9106L410.884 17.2388ZM406.147 27.79L410.058 32.3406L410.251 32.174L410.43 31.9916L406.147 27.79ZM402.486 30.374V36.374H403.971L405.285 35.6814L402.486 30.374ZM401.933 31.666L407.697 33.3295L407.813 32.9281L407.872 32.5145L401.933 31.666ZM400.148 37.8491V43.8491H404.662L405.913 39.5126L400.148 37.8491ZM400.025 37.8491L397.471 43.278L398.684 43.8491H400.025V37.8491ZM393.935 37.5415L387.966 38.154L388.73 45.6009L395.832 43.2336L393.935 37.5415ZM392.612 24.6523L390.969 18.8817L386.129 20.2595L386.643 25.2649L392.612 24.6523ZM399.072 22.1299L402.238 27.2265L402.437 27.1027L402.626 26.9638L399.072 22.1299ZM401.164 19.1768L396.171 15.8486L395.164 17.3601V19.1768H401.164ZM398.149 13.3936L400.706 7.96583L400.152 7.70477L399.557 7.56106L398.149 13.3936ZM392.673 15.1162L388.596 10.7148L388.19 11.0906L387.86 11.5341L392.673 15.1162ZM390.274 19.3306V25.3306H394.849L396.06 20.9189L390.274 19.3306ZM390.212 19.3306L387.707 24.7826L388.9 25.3306H390.212V19.3306ZM381.938 15.4546H375.938V18.5785L378.497 20.37L381.938 15.4546ZM381.938 15.3931L376.023 14.3863L375.938 14.8861V15.3931H381.938ZM385.475 8.96387L381.207 4.74733L381.062 4.89357L380.928 5.04936L385.475 8.96387ZM401.471 43.54L407.308 42.1503L407.21 41.7386L407.055 41.3446L401.471 43.54ZM401.687 44.9243H407.687V44.6747L407.666 44.426L401.687 44.9243ZM398.21 49.7847L399.455 55.6541L400.067 55.5244L400.638 55.2715L398.21 49.7847ZM391.935 46.6162L386.382 48.888L386.391 48.9096L386.4 48.931L391.935 46.6162ZM395.473 40.064L394.593 34.1287L394.016 34.2143L393.466 34.4094L395.473 40.064ZM397.134 9.91895C399.704 9.91895 401.797 10.8627 403.756 13.2876L413.091 5.74756C409.02 0.707637 403.587 -2.08105 397.134 -2.08105V9.91895ZM403.393 12.7875C404.534 14.5434 404.823 15.8014 404.823 16.6543H416.823C416.823 12.9135 415.512 9.4136 413.454 6.24765L403.393 12.7875ZM404.823 16.6543V16.9312H416.823V16.6543H404.823ZM404.823 16.9312C404.823 17.3243 404.818 18.9561 405.892 20.567L415.877 13.9106C416.431 14.7423 416.637 15.5163 416.722 15.939C416.811 16.3882 416.823 16.7427 416.823 16.9312H404.823ZM404.884 17.2388C404.884 19.1994 404.137 21.2712 401.864 23.5885L410.43 31.9916C414.474 27.8694 416.884 22.907 416.884 17.2388H404.884ZM402.236 23.2395C401.153 24.1707 400.305 24.741 399.688 25.0666L405.285 35.6814C406.923 34.8176 408.516 33.6652 410.058 32.3406L402.236 23.2395ZM402.486 24.374C398.333 24.374 396.81 27.9558 396.648 28.3335C396.242 29.2829 396.077 30.2295 395.993 30.8175L407.872 32.5145C407.911 32.2412 407.901 32.5418 407.678 33.0605C407.569 33.3163 407.252 34.0012 406.556 34.6974C405.768 35.4857 404.376 36.374 402.486 36.374V24.374ZM396.168 30.0025L394.384 36.1856L405.913 39.5126L407.697 33.3295L396.168 30.0025ZM400.148 31.8491H400.025V43.8491H400.148V31.8491ZM402.58 32.4202C400.787 31.5763 398.852 31.1108 396.826 31.1108V43.1108C396.974 43.1108 397.172 43.1376 397.471 43.278L402.58 32.4202ZM396.826 31.1108H396.488V43.1108H396.826V31.1108ZM396.488 31.1108C394.953 31.1108 393.462 31.3746 392.037 31.8494L395.832 43.2336C396.13 43.1342 396.341 43.1108 396.488 43.1108V31.1108ZM399.903 36.929L398.58 24.0398L386.643 25.2649L387.966 38.154L399.903 36.929ZM394.255 30.423C397.345 29.543 400.154 28.5208 402.238 27.2265L395.906 17.0332C395.282 17.4206 393.784 18.08 390.969 18.8817L394.255 30.423ZM402.626 26.9638C404.338 25.7051 407.164 23.1565 407.164 19.1768H395.164C395.164 18.0994 395.575 17.3933 395.744 17.1545C395.89 16.9487 395.902 17.0129 395.517 17.296L402.626 26.9638ZM406.156 22.505C407.312 20.7711 407.348 18.9342 407.348 18.2539H395.348C395.348 18.209 395.349 17.9775 395.419 17.6309C395.483 17.3108 395.658 16.6188 396.171 15.8486L406.156 22.505ZM407.348 18.2539V17.9155H395.348V18.2539H407.348ZM407.348 17.9155C407.348 15.7848 406.76 13.6697 405.446 11.8124C404.172 10.0107 402.455 8.78984 400.706 7.96583L395.592 18.8213C395.976 19.0022 395.858 19.0374 395.65 18.743C395.547 18.5967 395.461 18.4231 395.406 18.2434C395.353 18.0683 395.348 17.9481 395.348 17.9155H407.348ZM399.557 7.56106C398.629 7.33719 397.611 7.17822 396.549 7.17822V19.1782C396.483 19.1782 396.465 19.1734 396.503 19.1784C396.539 19.1834 396.617 19.1962 396.741 19.226L399.557 7.56106ZM396.549 7.17822C393.164 7.17822 390.468 8.98051 388.596 10.7148L396.751 19.5176C396.946 19.3372 397.099 19.2144 397.21 19.1344C397.321 19.0541 397.375 19.0273 397.372 19.0293C397.361 19.0348 397.065 19.1782 396.549 19.1782V7.17822ZM387.86 11.5341C386.464 13.4098 385.087 15.5619 384.488 17.7423L396.06 20.9189C396.024 21.0512 396.042 20.9192 396.303 20.4612C396.548 20.0313 396.928 19.4486 397.487 18.6983L387.86 11.5341ZM390.274 13.3306H390.212V25.3306H390.274V13.3306ZM392.717 13.8785C390.065 12.66 388.064 11.7342 386.705 11.0978C386.023 10.7783 385.521 10.5401 385.186 10.3778C385.015 10.2952 384.913 10.2444 384.863 10.2186C384.632 10.1009 384.989 10.2665 385.378 10.5392L378.497 20.37C378.807 20.5869 379.089 20.7383 379.124 20.7574C379.228 20.8143 379.327 20.8659 379.405 20.9059C379.566 20.9877 379.754 21.0805 379.954 21.1774C380.36 21.374 380.918 21.6382 381.615 21.9647C383.015 22.6203 385.048 23.5607 387.707 24.7826L392.717 13.8785ZM387.938 15.4546V15.3931H375.938V15.4546H387.938ZM387.852 16.3999C387.919 16.0068 388.322 14.8537 390.022 12.8784L380.928 5.04936C378.568 7.79087 376.612 10.9239 376.023 14.3863L387.852 16.3999ZM389.744 13.1804C392.017 10.8793 394.395 9.91895 397.134 9.91895V-2.08105C390.972 -2.08105 385.578 0.321911 381.207 4.74733L389.744 13.1804ZM396.611 45.9409C396.661 45.9409 396.594 45.9469 396.449 45.9028C396.298 45.8563 396.13 45.7751 395.978 45.6626C395.664 45.4298 395.714 45.2942 395.887 45.7354L407.055 41.3446C406.285 39.3864 405.054 37.4513 403.119 36.0188C401.135 34.5496 398.858 33.9409 396.611 33.9409V45.9409ZM395.634 44.9298C395.66 45.036 395.688 45.1968 395.707 45.4226L407.666 44.426C407.603 43.6674 407.488 42.9054 407.308 42.1503L395.634 44.9298ZM395.687 44.9243C395.687 44.9516 395.684 44.878 395.726 44.7386C395.77 44.5933 395.843 44.4421 395.937 44.3102C396.13 44.0399 396.223 44.103 395.783 44.2978L400.638 55.2715C402.515 54.441 404.346 53.1813 405.698 51.2909C407.086 49.3495 407.687 47.1368 407.687 44.9243H395.687ZM396.965 43.9153C396.841 43.9418 396.736 43.9624 396.651 43.9782C396.564 43.994 396.504 44.0036 396.468 44.009C396.43 44.0145 396.43 44.0135 396.463 44.0106C396.491 44.0081 396.587 44 396.734 44V56C397.722 56 398.747 55.8043 399.455 55.6541L396.965 43.9153ZM396.734 44C396.671 44 396.722 43.9925 396.85 44.0299C396.985 44.0695 397.146 44.1418 397.3 44.2505C397.627 44.4813 397.615 44.6466 397.471 44.3014L386.4 48.931C387.199 50.8417 388.458 52.6988 390.385 54.0576C392.345 55.4398 394.563 56 396.734 56V44ZM397.488 44.3444C397.674 44.7972 397.658 45.068 397.658 44.9858H385.658C385.658 46.1751 385.827 47.5329 386.382 48.888L397.488 44.3444ZM397.658 44.9858C397.658 44.9273 397.666 44.997 397.617 45.1497C397.566 45.3113 397.477 45.4886 397.354 45.6466C397.104 45.9698 396.97 45.899 397.479 45.7185L393.466 34.4094C391.432 35.1312 389.391 36.332 387.869 38.2958C386.302 40.3182 385.658 42.6693 385.658 44.9858H397.658ZM396.352 45.9992C396.583 45.9649 396.733 45.9461 396.817 45.9369C396.858 45.9325 396.865 45.9325 396.844 45.9339C396.833 45.9347 396.809 45.9363 396.773 45.9377C396.738 45.9392 396.683 45.9409 396.611 45.9409V33.9409C395.901 33.9409 395.104 34.053 394.593 34.1287L396.352 45.9992Z" fill="#2F5CA3"/>
</svg>
