<svg width="19" height="18" viewBox="0 0 19 18" fill="none" xmlns="http://www.w3.org/2000/svg">
<g clip-path="url(#clip0_2_3090)">
<path d="M18.3277 11.7527C18.1087 11.5329 17.7524 11.5329 17.5327 11.7527L15.8677 13.4177V5.73768C15.8677 4.18668 14.6054 2.92518 13.0552 2.92518H8.66766C8.35716 2.92518 8.10516 3.17718 8.10516 3.48768C8.10516 3.79818 8.35716 4.05018 8.66766 4.05018H13.0552C13.9852 4.05018 14.7427 4.80768 14.7427 5.73768V13.4177L13.0777 11.7527C12.8579 11.5329 12.5017 11.5329 12.2827 11.7527C12.0637 11.9724 12.0622 12.3287 12.2827 12.5477L14.9077 15.1727C15.0164 15.2829 15.1604 15.3377 15.3052 15.3377C15.4499 15.3377 15.5924 15.2837 15.7027 15.1727L18.3277 12.5477C18.5482 12.3287 18.5482 11.9724 18.3277 11.7527ZM10.3327 14.2127H5.94516C5.01516 14.2127 4.25766 13.4552 4.25766 12.5252V4.84518L5.92266 6.51018C6.03366 6.62043 6.17766 6.67518 6.32166 6.67518C6.46566 6.67518 6.60966 6.62043 6.71916 6.51018C6.93891 6.29043 6.93891 5.93418 6.71916 5.71518L4.09416 3.09018C3.87441 2.86968 3.51816 2.86968 3.29916 3.09018L0.674164 5.71518C0.453664 5.93418 0.453664 6.29043 0.674164 6.51018C0.894664 6.72993 1.24941 6.72993 1.46916 6.51018L3.13416 4.84518V12.5252C3.13416 14.0762 4.39641 15.3377 5.94666 15.3377H10.3342C10.6447 15.3377 10.8967 15.0857 10.8967 14.7752C10.8967 14.4647 10.6439 14.2127 10.3342 14.2127H10.3327Z" fill="#828282"/>
</g>
<defs>
<clipPath id="clip0_2_3090">
<rect width="18" height="18" fill="white" transform="translate(0.5)"/>
</clipPath>
</defs>
</svg>
