<svg width="17" height="15" viewBox="0 0 17 15" fill="none" xmlns="http://www.w3.org/2000/svg">
<path d="M8.50039 14.2285H8.48989C6.55264 14.1925 0.962891 9.14197 0.962891 4.35847C0.962891 2.06047 2.85664 0.0429688 5.01514 0.0429688C6.73264 0.0429688 7.88764 1.22797 8.49964 2.09047C9.11014 1.22947 10.2651 0.0429688 11.9834 0.0429688C14.1434 0.0429688 16.0364 2.06047 16.0364 4.35922C16.0364 9.14122 10.4459 14.1917 8.50864 14.227H8.50039V14.2285ZM5.01589 1.16872C3.45589 1.16872 2.08864 2.65972 2.08864 4.35997C2.08864 8.66497 7.36414 13.057 8.50114 13.1035C9.63964 13.057 14.9136 8.66572 14.9136 4.35997C14.9136 2.65972 13.5464 1.16872 11.9864 1.16872C10.0904 1.16872 9.03139 3.37072 9.02239 3.39247C8.84989 3.81397 8.15539 3.81397 7.98214 3.39247C7.97164 3.36997 6.91339 1.16872 5.01664 1.16872H5.01589Z" fill="#828282"/>
</svg>
